<?xml version="1.0" encoding="utf-8"?>
<!-- Generator: Adobe Illustrator 15.0.0, SVG Export Plug-In . SVG Version: 6.00 Build 0)  -->
<!DOCTYPE svg PUBLIC "-//W3C//DTD SVG 1.1//EN" "http://www.w3.org/Graphics/SVG/1.1/DTD/svg11.dtd">
<svg version="1.1" id="Layer_1" xmlns="http://www.w3.org/2000/svg" xmlns:xlink="http://www.w3.org/1999/xlink" x="0px" y="0px"
	 width="800px" height="600px" viewBox="0 0 800 600" enable-background="new 0 0 800 600" xml:space="preserve">
<g>
	<g>
		<g>
			<g>
				<g>
					<path fill-rule="evenodd" clip-rule="evenodd" fill="#3F85AA" d="M225.737,258.664c0.627,0.016,1.127,0.533,1.115,1.153
						c-0.015,0.62-0.521,1.12-1.15,1.116c-0.625-0.004-1.139-0.52-1.124-1.152C224.591,259.147,225.11,258.647,225.737,258.664z"/>
				</g>
			</g>
			<g>
				<g>
					<path fill-rule="evenodd" clip-rule="evenodd" fill="#3F85AA" d="M225.916,254.344c0.628,0.037,1.103,0.568,1.075,1.188
						s-0.56,1.102-1.187,1.078c-0.627-0.024-1.113-0.556-1.085-1.188C224.748,254.789,225.291,254.307,225.916,254.344z"/>
				</g>
			</g>
			<g>
				<g>
					<path fill-rule="evenodd" clip-rule="evenodd" fill="#3F85AA" d="M226.231,250.032c0.623,0.057,1.089,0.604,1.038,1.223
						c-0.053,0.618-0.595,1.083-1.221,1.039c-0.626-0.044-1.1-0.592-1.045-1.223C225.055,250.439,225.604,249.974,226.231,250.032z"
						/>
				</g>
			</g>
			<g>
				<g>
					<path fill-rule="evenodd" clip-rule="evenodd" fill="#3F85AA" d="M226.69,245.732c0.623,0.078,1.068,0.64,0.994,1.256
						c-0.067,0.616-0.627,1.063-1.251,0.998c-0.624-0.065-1.076-0.627-1.008-1.257C225.501,246.102,226.068,245.655,226.69,245.732z
						"/>
				</g>
			</g>
			<g>
				<g>
					<path fill-rule="evenodd" clip-rule="evenodd" fill="#3F85AA" d="M227.289,241.451c0.62,0.098,1.042,0.674,0.955,1.288
						c-0.09,0.613-0.668,1.041-1.288,0.956c-0.624-0.086-1.053-0.663-0.961-1.289C226.083,241.779,226.67,241.353,227.289,241.451z"
						/>
				</g>
			</g>
			<g>
				<g>
					<path fill-rule="evenodd" clip-rule="evenodd" fill="#3F85AA" d="M228.027,237.19c0.616,0.119,1.025,0.709,0.913,1.319
						c-0.115,0.609-0.696,1.02-1.316,0.913c-0.616-0.105-1.038-0.698-0.921-1.32C226.818,237.48,227.411,237.072,228.027,237.19z"/>
				</g>
			</g>
			<g>
				<g>
					<path fill-rule="evenodd" clip-rule="evenodd" fill="#3F85AA" d="M228.909,232.958c0.613,0.139,0.997,0.742,0.866,1.348
						c-0.128,0.607-0.731,0.996-1.346,0.87c-0.615-0.126-1.007-0.73-0.877-1.35C227.686,233.207,228.299,232.819,228.909,232.958z"
						/>
				</g>
			</g>
			<g>
				<g>
					<path fill-rule="evenodd" clip-rule="evenodd" fill="#3F85AA" d="M229.929,228.756c0.605,0.159,0.971,0.774,0.822,1.376
						c-0.152,0.601-0.767,0.97-1.375,0.824c-0.612-0.147-0.985-0.764-0.83-1.378C228.697,228.964,229.32,228.597,229.929,228.756z"
						/>
				</g>
			</g>
			<g>
				<g>
					<path fill-rule="evenodd" clip-rule="evenodd" fill="#3F85AA" d="M231.086,224.59c0.601,0.179,0.949,0.808,0.776,1.403
						c-0.173,0.596-0.793,0.946-1.4,0.779c-0.603-0.167-0.962-0.797-0.786-1.405S230.485,224.411,231.086,224.59z"/>
				</g>
			</g>
			<g>
				<g>
					<path fill-rule="evenodd" clip-rule="evenodd" fill="#3F85AA" d="M232.384,220.466c0.596,0.199,0.917,0.837,0.728,1.427
						c-0.188,0.591-0.827,0.918-1.426,0.731c-0.599-0.187-0.93-0.827-0.738-1.43C231.142,220.592,231.79,220.268,232.384,220.466z"
						/>
				</g>
			</g>
			<g>
				<g>
					<path fill-rule="evenodd" clip-rule="evenodd" fill="#3F85AA" d="M233.815,216.386c0.587,0.218,0.889,0.867,0.682,1.452
						c-0.21,0.583-0.859,0.889-1.45,0.683c-0.594-0.207-0.904-0.858-0.689-1.454C232.569,216.471,233.226,216.167,233.815,216.386z"
						/>
				</g>
			</g>
			<g>
				<g>
					<path fill-rule="evenodd" clip-rule="evenodd" fill="#3F85AA" d="M235.38,212.356c0.581,0.238,0.865,0.898,0.634,1.474
						c-0.233,0.575-0.883,0.862-1.471,0.635c-0.583-0.225-0.88-0.889-0.642-1.476C234.137,212.401,234.799,212.118,235.38,212.356z"
						/>
				</g>
			</g>
			<g>
				<g>
					<path fill-rule="evenodd" clip-rule="evenodd" fill="#3F85AA" d="M237.081,208.381c0.573,0.257,0.832,0.925,0.582,1.492
						c-0.245,0.57-0.913,0.832-1.49,0.587s-0.844-0.915-0.593-1.497C235.834,208.384,236.509,208.124,237.081,208.381z"/>
				</g>
			</g>
			<g>
				<g>
					<path fill-rule="evenodd" clip-rule="evenodd" fill="#3F85AA" d="M238.91,204.464c0.565,0.276,0.797,0.95,0.534,1.511
						c-0.266,0.561-0.944,0.799-1.512,0.536c-0.571-0.265-0.812-0.942-0.541-1.514C237.66,204.423,238.348,204.188,238.91,204.464z"
						/>
				</g>
			</g>
			<g>
				<g>
					<path fill-rule="evenodd" clip-rule="evenodd" fill="#3F85AA" d="M240.867,200.608c0.553,0.293,0.771,0.979,0.485,1.529
						c-0.289,0.549-0.966,0.77-1.527,0.486c-0.559-0.282-0.787-0.972-0.492-1.532C239.625,200.53,240.311,200.313,240.867,200.608z"
						/>
				</g>
			</g>
			<g>
				<g>
					<path fill-rule="evenodd" clip-rule="evenodd" fill="#3F85AA" d="M242.952,196.82c0.544,0.313,0.738,1.003,0.433,1.543
						c-0.302,0.542-0.99,0.738-1.541,0.437c-0.55-0.301-0.751-0.996-0.443-1.548C241.712,196.701,242.407,196.508,242.952,196.82z"
						/>
				</g>
			</g>
			<g>
				<g>
					<path fill-rule="evenodd" clip-rule="evenodd" fill="#3F85AA" d="M245.16,193.104c0.535,0.331,0.7,1.024,0.381,1.556
						s-1.016,0.704-1.557,0.384c-0.54-0.319-0.715-1.018-0.39-1.561C243.921,192.94,244.628,192.774,245.16,193.104z"/>
				</g>
			</g>
			<g>
				<g>
					<path fill-rule="evenodd" clip-rule="evenodd" fill="#3F85AA" d="M247.488,189.46c0.522,0.347,0.667,1.047,0.331,1.569
						c-0.339,0.519-1.04,0.668-1.568,0.333c-0.531-0.337-0.684-1.042-0.338-1.572C246.256,189.257,246.965,189.112,247.488,189.46z"
						/>
				</g>
			</g>
			<g>
				<g>
					<path fill-rule="evenodd" clip-rule="evenodd" fill="#3F85AA" d="M249.934,185.895c0.511,0.364,0.637,1.072,0.28,1.58
						c-0.358,0.506-1.057,0.637-1.577,0.282c-0.516-0.353-0.653-1.067-0.287-1.583C248.714,185.655,249.423,185.531,249.934,185.895
						z"/>
				</g>
			</g>
			<g>
				<g>
					<path fill-rule="evenodd" clip-rule="evenodd" fill="#3F85AA" d="M252.498,182.414c0.499,0.381,0.6,1.091,0.226,1.586
						c-0.369,0.499-1.078,0.602-1.584,0.231c-0.506-0.371-0.612-1.084-0.236-1.593C251.285,182.133,252,182.033,252.498,182.414z"/>
				</g>
			</g>
			<g>
				<g>
					<path fill-rule="evenodd" clip-rule="evenodd" fill="#3F85AA" d="M255.174,179.018c0.488,0.398,0.559,1.106,0.175,1.593
						c-0.386,0.485-1.1,0.564-1.594,0.177c-0.494-0.387-0.575-1.103-0.181-1.598C253.966,178.693,254.69,178.622,255.174,179.018z"
						/>
				</g>
			</g>
			<g>
				<g>
					<path fill-rule="evenodd" clip-rule="evenodd" fill="#3F85AA" d="M257.958,175.71c0.472,0.412,0.525,1.126,0.124,1.599
						c-0.405,0.47-1.118,0.527-1.598,0.125c-0.482-0.404-0.543-1.124-0.13-1.604C256.764,175.349,257.485,175.296,257.958,175.71z"
						/>
				</g>
			</g>
			<g>
				<g>
					<path fill-rule="evenodd" clip-rule="evenodd" fill="#3F85AA" d="M260.85,172.496c0.459,0.428,0.491,1.146,0.071,1.602
						c-0.421,0.456-1.132,0.494-1.601,0.074c-0.466-0.417-0.507-1.143-0.078-1.608C259.671,172.098,260.391,172.067,260.85,172.496z
						"/>
				</g>
			</g>
			<g>
				<g>
					<path fill-rule="evenodd" clip-rule="evenodd" fill="#3F85AA" d="M263.846,169.378c0.445,0.443,0.452,1.16,0.017,1.602
						c-0.431,0.446-1.148,0.456-1.602,0.022c-0.453-0.434-0.465-1.155-0.026-1.61C262.68,168.941,263.402,168.936,263.846,169.378z"
						/>
				</g>
			</g>
			<g>
				<g>
					<path fill-rule="evenodd" clip-rule="evenodd" fill="#3F85AA" d="M266.942,166.36c0.432,0.459,0.41,1.17-0.035,1.603
						c-0.446,0.431-1.165,0.415-1.604-0.033c-0.439-0.448-0.426-1.168,0.029-1.608C265.786,165.881,266.514,165.905,266.942,166.36z
						"/>
				</g>
			</g>
			<g>
				<g>
					<path fill-rule="evenodd" clip-rule="evenodd" fill="#3F85AA" d="M270.134,163.444c0.414,0.47,0.374,1.186-0.086,1.602
						c-0.463,0.413-1.177,0.377-1.601-0.084c-0.425-0.462-0.392-1.186,0.081-1.606C268.998,162.931,269.718,162.972,270.134,163.444
						z"/>
				</g>
			</g>
			<g>
				<g>
					<path fill-rule="evenodd" clip-rule="evenodd" fill="#3F85AA" d="M273.42,160.634c0.399,0.484,0.337,1.2-0.139,1.598
						c-0.476,0.398-1.186,0.342-1.596-0.135c-0.408-0.475-0.354-1.199,0.132-1.604S273.021,160.15,273.42,160.634z"/>
				</g>
			</g>
			<g>
				<g>
					<path fill-rule="evenodd" clip-rule="evenodd" fill="#3F85AA" d="M276.797,157.935c0.383,0.498,0.296,1.208-0.192,1.59
						c-0.485,0.386-1.198,0.302-1.591-0.188c-0.393-0.489-0.311-1.205,0.185-1.599C275.697,157.349,276.415,157.438,276.797,157.935
						z"/>
				</g>
			</g>
			<g>
				<g>
					<path fill-rule="evenodd" clip-rule="evenodd" fill="#3F85AA" d="M280.261,155.347c0.368,0.51,0.254,1.213-0.244,1.584
						c-0.499,0.369-1.209,0.259-1.585-0.242c-0.377-0.503-0.271-1.214,0.239-1.59C279.178,154.721,279.895,154.839,280.261,155.347z
						"/>
				</g>
			</g>
			<g>
				<g>
					<path fill-rule="evenodd" clip-rule="evenodd" fill="#3F85AA" d="M283.806,152.873c0.349,0.52,0.217,1.226-0.294,1.577
						c-0.513,0.348-1.216,0.221-1.576-0.292c-0.36-0.514-0.234-1.228,0.29-1.583C282.748,152.216,283.456,152.35,283.806,152.873z"
						/>
				</g>
			</g>
			<g>
				<g>
					<path fill-rule="evenodd" clip-rule="evenodd" fill="#3F85AA" d="M287.432,150.517c0.333,0.532,0.177,1.233-0.347,1.565
						c-0.523,0.333-1.221,0.184-1.564-0.343c-0.343-0.524-0.193-1.233,0.34-1.574C286.396,149.827,287.1,149.985,287.432,150.517z"
						/>
				</g>
			</g>
			<g>
				<g>
					<path fill-rule="evenodd" clip-rule="evenodd" fill="#3F85AA" d="M291.133,148.283c0.315,0.544,0.135,1.235-0.398,1.552
						c-0.532,0.319-1.228,0.142-1.553-0.395c-0.326-0.536-0.15-1.235,0.393-1.561C290.119,147.556,290.819,147.741,291.133,148.283z
						"/>
				</g>
			</g>
			<g>
				<g>
					<path fill-rule="evenodd" clip-rule="evenodd" fill="#3F85AA" d="M294.906,146.17c0.297,0.553,0.093,1.238-0.449,1.539
						c-0.543,0.299-1.233,0.098-1.54-0.447c-0.309-0.548-0.11-1.241,0.445-1.545C293.915,145.409,294.609,145.618,294.906,146.17z"
						/>
				</g>
			</g>
			<g>
				<g>
					<path fill-rule="evenodd" clip-rule="evenodd" fill="#3F85AA" d="M298.745,144.182c0.278,0.562,0.055,1.246-0.499,1.525
						c-0.555,0.277-1.233,0.062-1.524-0.496c-0.289-0.555-0.072-1.249,0.495-1.532C297.783,143.395,298.466,143.619,298.745,144.182
						z"/>
				</g>
			</g>
			<g>
				<g>
					<path fill-rule="evenodd" clip-rule="evenodd" fill="#3F85AA" d="M302.649,142.325c0.259,0.571,0.013,1.245-0.55,1.504
						c-0.561,0.265-1.234,0.021-1.505-0.545c-0.271-0.566-0.028-1.246,0.544-1.516C301.713,141.504,302.39,141.754,302.649,142.325z
						"/>
				</g>
			</g>
			<g>
				<g>
					<path fill-rule="evenodd" clip-rule="evenodd" fill="#3F85AA" d="M306.613,140.597c0.241,0.582-0.031,1.238-0.599,1.486
						c-0.57,0.245-1.236-0.023-1.489-0.598c-0.252-0.575,0.014-1.244,0.596-1.494C305.701,139.739,306.373,140.02,306.613,140.597z"
						/>
				</g>
			</g>
			<g>
				<g>
					<path fill-rule="evenodd" clip-rule="evenodd" fill="#3F85AA" d="M310.63,139c0.22,0.585-0.07,1.243-0.647,1.467
						c-0.58,0.222-1.234-0.063-1.467-0.646c-0.233-0.583,0.053-1.248,0.644-1.474C309.75,138.118,310.409,138.411,310.63,139z"/>
				</g>
			</g>
			<g>
				<g>
					<path fill-rule="evenodd" clip-rule="evenodd" fill="#3F85AA" d="M314.699,137.537c0.201,0.594-0.11,1.241-0.696,1.443
						c-0.585,0.206-1.23-0.101-1.445-0.692c-0.213-0.589,0.095-1.244,0.692-1.454C313.849,136.628,314.498,136.943,314.699,137.537z
						"/>
				</g>
			</g>
			<g>
				<g>
					<path fill-rule="evenodd" clip-rule="evenodd" fill="#3F85AA" d="M318.814,136.211c0.182,0.602-0.153,1.231-0.744,1.419
						s-1.228-0.145-1.421-0.741s0.138-1.236,0.741-1.428S318.633,135.613,318.814,136.211z"/>
				</g>
			</g>
			<g>
				<g>
					<path fill-rule="evenodd" clip-rule="evenodd" fill="#3F85AA" d="M322.971,135.021c0.161,0.604-0.193,1.228-0.79,1.396
						c-0.598,0.164-1.222-0.187-1.396-0.789c-0.174-0.604,0.177-1.235,0.788-1.402C322.182,134.055,322.809,134.413,322.971,135.021
						z"/>
				</g>
			</g>
			<g>
				<g>
					<path fill-rule="evenodd" clip-rule="evenodd" fill="#3F85AA" d="M327.165,133.97c0.142,0.611-0.233,1.224-0.836,1.367
						c-0.603,0.146-1.214-0.223-1.368-0.832c-0.154-0.607,0.218-1.229,0.833-1.378C326.409,132.981,327.023,133.358,327.165,133.97z
						"/>
				</g>
			</g>
			<g>
				<g>
					<path fill-rule="evenodd" clip-rule="evenodd" fill="#3F85AA" d="M331.391,133.059c0.122,0.618-0.275,1.209-0.881,1.338
						c-0.606,0.128-1.207-0.266-1.34-0.879c-0.134-0.613,0.259-1.216,0.878-1.347C330.667,132.039,331.271,132.445,331.391,133.059z
						"/>
				</g>
			</g>
			<g>
				<g>
					<path fill-rule="evenodd" clip-rule="evenodd" fill="#3F85AA" d="M335.645,132.286c0.101,0.617-0.313,1.205-0.924,1.311
						c-0.612,0.103-1.198-0.306-1.311-0.922c-0.113-0.617,0.298-1.213,0.923-1.318C334.956,131.249,335.544,131.665,335.645,132.286
						z"/>
				</g>
			</g>
			<g>
				<g>
					<path fill-rule="evenodd" clip-rule="evenodd" fill="#3F85AA" d="M339.922,131.656c0.081,0.622-0.353,1.194-0.967,1.276
						c-0.614,0.088-1.187-0.342-1.28-0.963c-0.093-0.62,0.339-1.199,0.965-1.289C339.268,130.597,339.842,131.034,339.922,131.656z"
						/>
				</g>
			</g>
			<g>
				<g>
					<path fill-rule="evenodd" clip-rule="evenodd" fill="#3F85AA" d="M344.218,131.167c0.06,0.625-0.393,1.177-1.009,1.246
						c-0.617,0.067-1.175-0.387-1.248-1.008c-0.073-0.625,0.378-1.185,1.007-1.253C343.598,130.081,344.158,130.543,344.218,131.167
						z"/>
				</g>
			</g>
			<g>
				<g>
					<path fill-rule="evenodd" clip-rule="evenodd" fill="#3F85AA" d="M348.527,130.816c0.04,0.626-0.43,1.17-1.049,1.213
						c-0.619,0.041-1.161-0.418-1.214-1.046c-0.052-0.624,0.417-1.18,1.048-1.222C347.944,129.718,348.488,130.19,348.527,130.816z"
						/>
				</g>
			</g>
			<g>
				<g>
					<path fill-rule="evenodd" clip-rule="evenodd" fill="#3F85AA" d="M352.846,130.61c0.019,0.629-0.468,1.149-1.088,1.177
						c-0.62,0.027-1.147-0.459-1.179-1.086c-0.032-0.626,0.455-1.158,1.087-1.186C352.298,129.486,352.827,129.985,352.846,130.61z"
						/>
				</g>
			</g>
			<g>
				<g>
					<path fill-rule="evenodd" clip-rule="evenodd" fill="#3F85AA" d="M357.169,130.54c-0.001,0.626-0.505,1.14-1.125,1.144
						c-0.621,0.001-1.132-0.495-1.144-1.123c-0.011-0.627,0.492-1.149,1.125-1.15C356.658,129.406,357.17,129.911,357.169,130.54z"
						/>
				</g>
			</g>
			<g>
				<g>
					<path fill-rule="evenodd" clip-rule="evenodd" fill="#3F85AA" d="M361.492,130.613c-0.021,0.628-0.542,1.119-1.162,1.103
						c-0.62-0.012-1.116-0.531-1.106-1.159c0.009-0.627,0.529-1.127,1.161-1.115C361.018,129.459,361.514,129.987,361.492,130.613z"
						/>
				</g>
			</g>
			<g>
				<g>
					<path fill-rule="evenodd" clip-rule="evenodd" fill="#3F85AA" d="M365.811,130.824c-0.042,0.624-0.578,1.102-1.197,1.067
						c-0.619-0.038-1.097-0.57-1.068-1.196c0.029-0.628,0.565-1.113,1.197-1.074C365.374,129.656,365.853,130.196,365.811,130.824z"
						/>
				</g>
			</g>
			<g>
				<g>
					<path fill-rule="evenodd" clip-rule="evenodd" fill="#3F85AA" d="M370.12,131.176c-0.062,0.625-0.614,1.084-1.231,1.025
						c-0.618-0.053-1.079-0.601-1.029-1.227c0.05-0.625,0.601-1.092,1.231-1.038C369.722,129.997,370.182,130.552,370.12,131.176z"
						/>
				</g>
			</g>
			<g>
				<g>
					<path fill-rule="evenodd" clip-rule="evenodd" fill="#3F85AA" d="M374.415,131.67c-0.083,0.623-0.648,1.057-1.264,0.986
						c-0.616-0.074-1.058-0.642-0.988-1.264c0.07-0.625,0.636-1.069,1.265-0.993C374.057,130.472,374.498,131.049,374.415,131.67z"
						/>
				</g>
			</g>
			<g>
				<g>
					<path fill-rule="evenodd" clip-rule="evenodd" fill="#3F85AA" d="M378.692,132.302c-0.103,0.619-0.684,1.042-1.296,0.945
						c-0.612-0.101-1.037-0.67-0.946-1.293c0.09-0.619,0.672-1.056,1.297-0.954C378.372,131.1,378.795,131.683,378.692,132.302z"/>
				</g>
			</g>
			<g>
				<g>
					<path fill-rule="evenodd" clip-rule="evenodd" fill="#3F85AA" d="M382.945,133.079c-0.124,0.616-0.717,1.015-1.326,0.898
						c-0.609-0.113-1.014-0.706-0.902-1.323c0.111-0.618,0.705-1.025,1.328-0.91C382.666,131.863,383.069,132.465,382.945,133.079z"
						/>
				</g>
			</g>
			<g>
				<g>
					<path fill-rule="evenodd" clip-rule="evenodd" fill="#3F85AA" d="M387.171,133.994c-0.144,0.61-0.75,0.99-1.355,0.856
						c-0.604-0.137-0.989-0.743-0.858-1.354c0.132-0.616,0.739-1.004,1.357-0.864C386.933,132.768,387.315,133.382,387.171,133.994z
						"/>
				</g>
			</g>
			<g>
				<g>
					<path fill-rule="evenodd" clip-rule="evenodd" fill="#3F85AA" d="M391.364,135.047c-0.164,0.605-0.784,0.969-1.383,0.811
						s-0.965-0.77-0.813-1.38c0.151-0.607,0.773-0.982,1.385-0.82C391.165,133.819,391.528,134.441,391.364,135.047z"/>
				</g>
			</g>
			<g>
				<g>
					<path fill-rule="evenodd" clip-rule="evenodd" fill="#3F85AA" d="M395.52,136.242c-0.185,0.601-0.814,0.938-1.409,0.763
						c-0.595-0.173-0.938-0.804-0.767-1.407c0.171-0.604,0.803-0.95,1.411-0.774C395.363,135.003,395.703,135.643,395.52,136.242z"
						/>
				</g>
			</g>
			<g>
				<g>
					<path fill-rule="evenodd" clip-rule="evenodd" fill="#3F85AA" d="M399.634,137.571c-0.204,0.592-0.845,0.91-1.434,0.717
						c-0.588-0.196-0.91-0.837-0.719-1.433c0.192-0.599,0.835-0.926,1.436-0.725C399.518,136.328,399.838,136.977,399.634,137.571z"
						/>
				</g>
			</g>
			<g>
				<g>
					<path fill-rule="evenodd" clip-rule="evenodd" fill="#3F85AA" d="M403.701,139.036c-0.223,0.586-0.876,0.887-1.457,0.67
						c-0.58-0.218-0.884-0.862-0.672-1.455c0.211-0.589,0.867-0.901,1.46-0.679C403.625,137.794,403.925,138.449,403.701,139.036z"
						/>
				</g>
			</g>
			<g>
				<g>
					<path fill-rule="evenodd" clip-rule="evenodd" fill="#3F85AA" d="M407.718,140.637c-0.243,0.579-0.903,0.854-1.478,0.619
						c-0.575-0.231-0.854-0.892-0.623-1.476c0.23-0.583,0.894-0.866,1.481-0.63C407.684,139.39,407.96,140.059,407.718,140.637z"/>
				</g>
			</g>
			<g>
				<g>
					<path fill-rule="evenodd" clip-rule="evenodd" fill="#3F85AA" d="M411.68,142.369c-0.263,0.571-0.931,0.821-1.498,0.571
						c-0.566-0.252-0.822-0.924-0.573-1.498c0.251-0.578,0.922-0.836,1.5-0.579C411.688,141.119,411.94,141.799,411.68,142.369z"/>
				</g>
			</g>
			<g>
				<g>
					<path fill-rule="evenodd" clip-rule="evenodd" fill="#3F85AA" d="M415.582,144.229c-0.279,0.56-0.96,0.796-1.517,0.523
						c-0.556-0.275-0.794-0.946-0.524-1.514c0.269-0.566,0.952-0.811,1.52-0.53C415.629,142.986,415.863,143.666,415.582,144.229z"
						/>
				</g>
			</g>
			<g>
				<g>
					<path fill-rule="evenodd" clip-rule="evenodd" fill="#3F85AA" d="M419.42,146.22c-0.299,0.552-0.984,0.763-1.531,0.47
						c-0.55-0.288-0.763-0.972-0.475-1.53c0.287-0.557,0.976-0.774,1.537-0.481C419.509,144.978,419.719,145.668,419.42,146.22z"/>
				</g>
			</g>
			<g>
				<g>
					<path fill-rule="evenodd" clip-rule="evenodd" fill="#3F85AA" d="M423.19,148.335c-0.317,0.543-1.006,0.725-1.546,0.42
						c-0.54-0.306-0.729-0.999-0.423-1.547s1-0.74,1.551-0.428C423.323,147.092,423.507,147.796,423.19,148.335z"/>
				</g>
			</g>
			<g>
				<g>
					<path fill-rule="evenodd" clip-rule="evenodd" fill="#3F85AA" d="M426.891,150.573c-0.334,0.53-1.031,0.693-1.561,0.37
						c-0.527-0.327-0.694-1.023-0.372-1.56c0.324-0.539,1.026-0.71,1.564-0.376C427.063,149.337,427.226,150.041,426.891,150.573z"
						/>
				</g>
			</g>
			<g>
				<g>
					<path fill-rule="evenodd" clip-rule="evenodd" fill="#3F85AA" d="M430.515,152.931c-0.352,0.52-1.057,0.663-1.572,0.319
						c-0.516-0.345-0.663-1.042-0.321-1.57c0.341-0.525,1.051-0.678,1.577-0.326C430.725,151.705,430.866,152.411,430.515,152.931z"
						/>
				</g>
			</g>
			<g>
				<g>
					<path fill-rule="evenodd" clip-rule="evenodd" fill="#3F85AA" d="M434.058,155.408c-0.369,0.508-1.075,0.626-1.58,0.265
						c-0.507-0.356-0.628-1.063-0.27-1.579s1.068-0.639,1.587-0.275C434.31,154.188,434.426,154.901,434.058,155.408z"/>
				</g>
			</g>
			<g>
				<g>
					<path fill-rule="evenodd" clip-rule="evenodd" fill="#3F85AA" d="M437.519,158c-0.386,0.497-1.092,0.586-1.589,0.214
						c-0.494-0.374-0.59-1.087-0.216-1.589c0.376-0.504,1.089-0.602,1.593-0.22C437.813,156.784,437.902,157.505,437.519,158z"/>
				</g>
			</g>
			<g>
				<g>
					<path fill-rule="evenodd" clip-rule="evenodd" fill="#3F85AA" d="M440.894,160.702c-0.399,0.481-1.114,0.554-1.596,0.163
						c-0.479-0.394-0.556-1.104-0.164-1.595c0.391-0.491,1.11-0.571,1.6-0.169C441.225,159.5,441.296,160.218,440.894,160.702z"/>
				</g>
			</g>
			<g>
				<g>
					<path fill-rule="evenodd" clip-rule="evenodd" fill="#3F85AA" d="M444.178,163.514c-0.416,0.469-1.133,0.519-1.6,0.11
						c-0.467-0.408-0.521-1.119-0.113-1.598c0.406-0.477,1.129-0.534,1.605-0.118C444.547,162.325,444.595,163.044,444.178,163.514z
						"/>
				</g>
			</g>
			<g>
				<g>
					<path fill-rule="evenodd" clip-rule="evenodd" fill="#3F85AA" d="M447.367,166.433c-0.432,0.456-1.147,0.479-1.601,0.056
						c-0.457-0.419-0.483-1.137-0.061-1.601c0.422-0.464,1.143-0.493,1.608-0.065C447.777,165.254,447.799,165.978,447.367,166.433z
						"/>
				</g>
			</g>
			<g>
				<g>
					<path fill-rule="evenodd" clip-rule="evenodd" fill="#3F85AA" d="M450.461,169.454c-0.447,0.442-1.16,0.438-1.604,0.005
						c-0.441-0.436-0.442-1.156-0.007-1.604c0.439-0.451,1.158-0.455,1.608-0.011C450.911,168.287,450.906,169.013,450.461,169.454z
						"/>
				</g>
			</g>
			<g>
				<g>
					<path fill-rule="evenodd" clip-rule="evenodd" fill="#3F85AA" d="M453.454,172.573c-0.459,0.425-1.177,0.404-1.603-0.046
						c-0.424-0.453-0.407-1.167,0.044-1.603c0.452-0.435,1.177-0.421,1.609,0.041C453.938,171.425,453.916,172.146,453.454,172.573z
						"/>
				</g>
			</g>
			<g>
				<g>
					<path fill-rule="evenodd" clip-rule="evenodd" fill="#3F85AA" d="M456.344,175.79c-0.475,0.411-1.191,0.366-1.6-0.1
						c-0.411-0.465-0.371-1.178,0.096-1.599c0.465-0.419,1.188-0.382,1.607,0.093C456.864,174.659,456.817,175.378,456.344,175.79z"
						/>
				</g>
			</g>
			<g>
				<g>
					<path fill-rule="evenodd" clip-rule="evenodd" fill="#3F85AA" d="M459.125,179.099c-0.488,0.396-1.199,0.325-1.595-0.153
						c-0.397-0.476-0.33-1.19,0.149-1.595c0.479-0.405,1.197-0.34,1.603,0.146C459.686,177.984,459.612,178.705,459.125,179.099z"/>
				</g>
			</g>
			<g>
				<g>
					<path fill-rule="evenodd" clip-rule="evenodd" fill="#3F85AA" d="M461.798,182.498c-0.5,0.379-1.207,0.284-1.59-0.204
						c-0.38-0.49-0.288-1.203,0.202-1.591c0.494-0.39,1.208-0.301,1.596,0.199C462.396,181.4,462.298,182.119,461.798,182.498z"/>
				</g>
			</g>
			<g>
				<g>
					<path fill-rule="evenodd" clip-rule="evenodd" fill="#3F85AA" d="M464.359,185.981c-0.511,0.361-1.222,0.248-1.584-0.255
						c-0.36-0.505-0.252-1.209,0.254-1.583c0.504-0.372,1.222-0.265,1.589,0.25C464.988,184.907,464.873,185.618,464.359,185.981z"
						/>
				</g>
			</g>
			<g>
				<g>
					<path fill-rule="evenodd" clip-rule="evenodd" fill="#3F85AA" d="M466.803,189.548c-0.523,0.345-1.229,0.208-1.572-0.309
						c-0.348-0.514-0.214-1.216,0.304-1.572c0.516-0.355,1.228-0.223,1.582,0.302C467.467,188.495,467.326,189.203,466.803,189.548z
						"/>
				</g>
			</g>
			<g>
				<g>
					<path fill-rule="evenodd" clip-rule="evenodd" fill="#3F85AA" d="M469.128,193.193c-0.536,0.329-1.23,0.165-1.562-0.36
						c-0.331-0.524-0.171-1.224,0.357-1.563c0.527-0.339,1.23-0.181,1.569,0.354C469.83,192.16,469.661,192.866,469.128,193.193z"/>
				</g>
			</g>
			<g>
				<g>
					<path fill-rule="evenodd" clip-rule="evenodd" fill="#3F85AA" d="M471.333,196.912c-0.545,0.31-1.235,0.124-1.55-0.411
						c-0.312-0.536-0.129-1.23,0.408-1.55c0.541-0.322,1.239-0.141,1.557,0.406C472.069,195.903,471.879,196.602,471.333,196.912z"
						/>
				</g>
			</g>
			<g>
				<g>
					<path fill-rule="evenodd" clip-rule="evenodd" fill="#3F85AA" d="M473.415,200.701c-0.555,0.292-1.243,0.086-1.536-0.461
						c-0.29-0.548-0.093-1.231,0.458-1.535c0.547-0.302,1.247-0.103,1.544,0.457C474.18,199.719,473.971,200.409,473.415,200.701z"
						/>
				</g>
			</g>
			<g>
				<g>
					<path fill-rule="evenodd" clip-rule="evenodd" fill="#3F85AA" d="M475.368,204.558c-0.564,0.274-1.244,0.044-1.517-0.513
						c-0.279-0.554-0.052-1.234,0.507-1.519c0.56-0.285,1.244-0.059,1.529,0.506C476.166,203.602,475.934,204.285,475.368,204.558z"
						/>
				</g>
			</g>
			<g>
				<g>
					<path fill-rule="evenodd" clip-rule="evenodd" fill="#3F85AA" d="M477.194,208.478c-0.575,0.255-1.239,0-1.501-0.563
						c-0.259-0.563-0.007-1.236,0.562-1.502c0.568-0.267,1.243-0.017,1.508,0.558C478.029,207.545,477.767,208.224,477.194,208.478z
						"/>
				</g>
			</g>
			<g>
				<g>
					<path fill-rule="evenodd" clip-rule="evenodd" fill="#3F85AA" d="M478.892,212.454c-0.58,0.235-1.244-0.039-1.483-0.611
						c-0.235-0.574,0.032-1.235,0.609-1.483c0.576-0.248,1.249,0.022,1.489,0.607C479.751,211.552,479.475,212.218,478.892,212.454z
						"/>
				</g>
			</g>
			<g>
				<g>
					<path fill-rule="evenodd" clip-rule="evenodd" fill="#3F85AA" d="M480.454,216.485c-0.589,0.216-1.243-0.08-1.46-0.661
						c-0.221-0.58,0.07-1.232,0.656-1.461c0.583-0.228,1.245,0.064,1.471,0.656C481.342,215.612,481.043,216.269,480.454,216.485z"
						/>
				</g>
			</g>
			<g>
				<g>
					<path fill-rule="evenodd" clip-rule="evenodd" fill="#3F85AA" d="M481.882,220.566c-0.598,0.197-1.234-0.123-1.438-0.708
						c-0.202-0.586,0.115-1.23,0.706-1.439c0.592-0.209,1.24,0.106,1.446,0.705C482.804,219.722,482.477,220.37,481.882,220.566z"/>
				</g>
			</g>
			<g>
				<g>
					<path fill-rule="evenodd" clip-rule="evenodd" fill="#3F85AA" d="M483.176,224.692c-0.601,0.176-1.232-0.163-1.415-0.755
						c-0.178-0.594,0.156-1.227,0.753-1.415c0.6-0.189,1.24,0.146,1.423,0.752C484.122,223.879,483.779,224.515,483.176,224.692z"/>
				</g>
			</g>
			<g>
				<g>
					<path fill-rule="evenodd" clip-rule="evenodd" fill="#3F85AA" d="M484.331,228.858c-0.607,0.157-1.229-0.202-1.388-0.802
						c-0.161-0.599,0.192-1.219,0.798-1.389c0.603-0.169,1.234,0.187,1.397,0.798C485.301,228.078,484.938,228.702,484.331,228.858z
						"/>
				</g>
			</g>
			<g>
				<g>
					<path fill-rule="evenodd" clip-rule="evenodd" fill="#3F85AA" d="M485.346,233.061c-0.614,0.137-1.216-0.244-1.359-0.848
						c-0.144-0.603,0.236-1.213,0.846-1.362s1.223,0.229,1.368,0.845C486.348,232.312,485.957,232.925,485.346,233.061z"/>
				</g>
			</g>
			<g>
				<g>
					<path fill-rule="evenodd" clip-rule="evenodd" fill="#3F85AA" d="M486.225,237.294c-0.615,0.116-1.212-0.283-1.334-0.892
						c-0.118-0.608,0.276-1.205,0.891-1.333c0.614-0.129,1.22,0.268,1.34,0.89C487.245,236.58,486.843,237.178,486.225,237.294z"/>
				</g>
			</g>
			<g>
				<g>
					<path fill-rule="evenodd" clip-rule="evenodd" fill="#3F85AA" d="M486.96,241.555c-0.62,0.096-1.203-0.323-1.301-0.936
						c-0.103-0.612,0.313-1.194,0.932-1.303c0.617-0.108,1.208,0.309,1.313,0.933C488.003,240.875,487.58,241.459,486.96,241.555z"
						/>
				</g>
			</g>
			<g>
				<g>
					<path fill-rule="evenodd" clip-rule="evenodd" fill="#3F85AA" d="M487.555,245.837c-0.624,0.076-1.185-0.363-1.27-0.978
						c-0.082-0.615,0.355-1.184,0.978-1.272c0.621-0.088,1.193,0.349,1.276,0.976C488.626,245.19,488.176,245.762,487.555,245.837z"
						/>
				</g>
			</g>
			<g>
				<g>
					<path fill-rule="evenodd" clip-rule="evenodd" fill="#3F85AA" d="M488.012,250.137c-0.625,0.055-1.181-0.402-1.239-1.019
						c-0.056-0.618,0.39-1.171,1.016-1.239c0.622-0.067,1.19,0.387,1.247,1.018C489.096,249.526,488.637,250.082,488.012,250.137z"
						/>
				</g>
			</g>
			<g>
				<g>
					<path fill-rule="evenodd" clip-rule="evenodd" fill="#3F85AA" d="M488.322,254.449c-0.627,0.035-1.161-0.44-1.201-1.059
						c-0.044-0.619,0.43-1.158,1.056-1.205c0.626-0.047,1.169,0.427,1.213,1.058C489.431,253.874,488.948,254.415,488.322,254.449z"
						/>
				</g>
			</g>
			<g>
				<g>
					<path fill-rule="evenodd" clip-rule="evenodd" fill="#3F85AA" d="M488.497,258.769c-0.625,0.014-1.149-0.478-1.17-1.098
						c-0.017-0.62,0.471-1.144,1.096-1.17c0.628-0.027,1.159,0.464,1.177,1.097C489.621,258.23,489.127,258.755,488.497,258.769z"/>
				</g>
			</g>
			<g>
				<g>
					<path fill-rule="evenodd" clip-rule="evenodd" fill="#3F85AA" d="M488.529,263.092c-0.628-0.006-1.134-0.514-1.13-1.135
						c-0.004-0.62,0.502-1.127,1.13-1.134c0.627-0.006,1.14,0.501,1.144,1.134C489.669,262.59,489.156,263.099,488.529,263.092z"/>
				</g>
			</g>
			<g>
				<g>
					<path fill-rule="evenodd" clip-rule="evenodd" fill="#3F85AA" d="M488.424,267.415c-0.626-0.026-1.113-0.551-1.097-1.17
						c0.021-0.62,0.545-1.111,1.17-1.097c0.63,0.014,1.124,0.538,1.104,1.17C489.582,266.95,489.052,267.441,488.424,267.415z"/>
				</g>
			</g>
			<g>
				<g>
					<path fill-rule="evenodd" clip-rule="evenodd" fill="#3F85AA" d="M488.177,271.731c-0.626-0.047-1.099-0.587-1.056-1.206
						c0.04-0.619,0.574-1.093,1.202-1.058c0.625,0.034,1.108,0.574,1.066,1.206C489.346,271.304,488.803,271.778,488.177,271.731z"
						/>
				</g>
			</g>
			<g>
				<g>
					<path fill-rule="evenodd" clip-rule="evenodd" fill="#3F85AA" d="M487.789,276.037c-0.626-0.067-1.072-0.622-1.017-1.239
						c0.059-0.617,0.614-1.073,1.239-1.019s1.084,0.61,1.023,1.24C488.979,275.649,488.41,276.104,487.789,276.037z"/>
				</g>
			</g>
			<g>
				<g>
					<path fill-rule="evenodd" clip-rule="evenodd" fill="#3F85AA" d="M487.263,280.329c-0.621-0.088-1.06-0.658-0.978-1.272
						c0.085-0.614,0.646-1.053,1.27-0.978c0.622,0.075,1.072,0.646,0.985,1.273C488.456,279.979,487.884,280.417,487.263,280.329z"
						/>
				</g>
			</g>
			<g>
				<g>
					<path fill-rule="evenodd" clip-rule="evenodd" fill="#3F85AA" d="M486.591,284.6c-0.618-0.108-1.033-0.691-0.931-1.303
						c0.098-0.612,0.68-1.031,1.3-0.935s1.043,0.68,0.943,1.305C487.799,284.291,487.208,284.708,486.591,284.6z"/>
				</g>
			</g>
			<g>
				<g>
					<path fill-rule="evenodd" clip-rule="evenodd" fill="#3F85AA" d="M485.781,288.847c-0.613-0.128-1.008-0.725-0.89-1.333
						c0.121-0.608,0.719-1.007,1.333-0.892c0.618,0.117,1.021,0.714,0.897,1.335C487.001,288.578,486.396,288.976,485.781,288.847z"
						/>
				</g>
			</g>
			<g>
				<g>
					<path fill-rule="evenodd" clip-rule="evenodd" fill="#3F85AA" d="M484.832,293.065c-0.609-0.149-0.988-0.759-0.845-1.362
						c0.144-0.604,0.745-0.984,1.359-0.847c0.61,0.136,1.001,0.748,0.854,1.364C486.056,292.835,485.442,293.214,484.832,293.065z"
						/>
				</g>
			</g>
			<g>
				<g>
					<path fill-rule="evenodd" clip-rule="evenodd" fill="#3F85AA" d="M483.741,297.249c-0.604-0.169-0.958-0.79-0.797-1.389
						c0.158-0.6,0.779-0.958,1.388-0.801c0.607,0.156,0.97,0.779,0.808,1.392C484.977,297.061,484.345,297.417,483.741,297.249z"/>
				</g>
			</g>
			<g>
				<g>
					<path fill-rule="evenodd" clip-rule="evenodd" fill="#3F85AA" d="M482.515,301.395c-0.597-0.188-0.931-0.822-0.753-1.416
						c0.183-0.593,0.814-0.931,1.415-0.754c0.604,0.177,0.946,0.812,0.761,1.417C483.755,301.248,483.114,301.584,482.515,301.395z"
						/>
				</g>
			</g>
			<g>
				<g>
					<path fill-rule="evenodd" clip-rule="evenodd" fill="#3F85AA" d="M481.151,305.498c-0.591-0.209-0.908-0.854-0.705-1.44
						c0.202-0.586,0.839-0.905,1.437-0.708c0.595,0.196,0.922,0.845,0.715,1.442C482.392,305.391,481.743,305.706,481.151,305.498z"
						/>
				</g>
			</g>
			<g>
				<g>
					<path fill-rule="evenodd" clip-rule="evenodd" fill="#3F85AA" d="M479.651,309.553c-0.586-0.229-0.876-0.883-0.656-1.462
						c0.217-0.581,0.871-0.876,1.46-0.66c0.589,0.217,0.888,0.872,0.667,1.466C480.897,309.488,480.234,309.78,479.651,309.553z"/>
				</g>
			</g>
			<g>
				<g>
					<path fill-rule="evenodd" clip-rule="evenodd" fill="#3F85AA" d="M478.019,313.556c-0.577-0.247-0.845-0.909-0.608-1.483
						c0.238-0.572,0.902-0.845,1.482-0.61c0.583,0.236,0.859,0.901,0.616,1.486C479.268,313.533,478.595,313.803,478.019,313.556z"
						/>
				</g>
			</g>
			<g>
				<g>
					<path fill-rule="evenodd" clip-rule="evenodd" fill="#3F85AA" d="M476.256,317.504c-0.568-0.267-0.819-0.94-0.561-1.504
						c0.262-0.562,0.925-0.816,1.5-0.562c0.572,0.254,0.835,0.933,0.568,1.506C477.499,317.52,476.824,317.771,476.256,317.504z"/>
				</g>
			</g>
			<g>
				<g>
					<path fill-rule="evenodd" clip-rule="evenodd" fill="#3F85AA" d="M474.36,321.39c-0.56-0.285-0.787-0.966-0.508-1.52
						c0.273-0.557,0.952-0.786,1.518-0.513c0.564,0.273,0.798,0.957,0.519,1.525C475.604,321.447,474.919,321.675,474.36,321.39z"/>
				</g>
			</g>
			<g>
				<g>
					<path fill-rule="evenodd" clip-rule="evenodd" fill="#3F85AA" d="M472.338,325.211c-0.551-0.304-0.748-0.987-0.458-1.535
						c0.293-0.547,0.981-0.753,1.537-0.461c0.555,0.292,0.764,0.981,0.465,1.539C473.586,325.313,472.886,325.514,472.338,325.211z"
						/>
				</g>
			</g>
			<g>
				<g>
					<path fill-rule="evenodd" clip-rule="evenodd" fill="#3F85AA" d="M470.193,328.965c-0.538-0.32-0.72-1.014-0.409-1.551
						c0.314-0.534,1.005-0.72,1.55-0.41c0.546,0.311,0.736,1.009,0.416,1.555C471.432,329.105,470.733,329.287,470.193,328.965z"/>
				</g>
			</g>
			<g>
				<g>
					<path fill-rule="evenodd" clip-rule="evenodd" fill="#3F85AA" d="M467.925,332.646c-0.528-0.338-0.688-1.039-0.356-1.563
						c0.33-0.524,1.024-0.688,1.561-0.359c0.534,0.327,0.703,1.032,0.365,1.567S468.453,332.984,467.925,332.646z"/>
				</g>
			</g>
			<g>
				<g>
					<path fill-rule="evenodd" clip-rule="evenodd" fill="#3F85AA" d="M465.535,336.249c-0.517-0.356-0.65-1.059-0.304-1.572
						c0.345-0.517,1.049-0.653,1.572-0.309c0.524,0.346,0.665,1.053,0.313,1.579C466.763,336.472,466.052,336.604,465.535,336.249z"
						/>
				</g>
			</g>
			<g>
				<g>
					<path fill-rule="evenodd" clip-rule="evenodd" fill="#3F85AA" d="M463.03,339.773c-0.506-0.374-0.613-1.078-0.253-1.583
						c0.362-0.504,1.072-0.616,1.583-0.255c0.514,0.363,0.63,1.073,0.26,1.587C464.253,340.037,463.534,340.146,463.03,339.773z"/>
				</g>
			</g>
			<g>
				<g>
					<path fill-rule="evenodd" clip-rule="evenodd" fill="#3F85AA" d="M460.412,343.214c-0.491-0.388-0.582-1.102-0.202-1.592
						c0.382-0.488,1.089-0.583,1.59-0.203c0.499,0.378,0.599,1.097,0.208,1.595C461.62,343.515,460.906,343.604,460.412,343.214z"/>
				</g>
			</g>
			<g>
				<g>
					<path fill-rule="evenodd" clip-rule="evenodd" fill="#3F85AA" d="M457.681,346.565c-0.479-0.405-0.546-1.12-0.148-1.596
						c0.396-0.478,1.106-0.549,1.595-0.152c0.486,0.395,0.561,1.114,0.157,1.603C458.878,346.905,458.16,346.971,457.681,346.565z"
						/>
				</g>
			</g>
			<g>
				<g>
					<path fill-rule="evenodd" clip-rule="evenodd" fill="#3F85AA" d="M454.841,349.826c-0.466-0.422-0.506-1.135-0.096-1.6
						c0.409-0.467,1.126-0.511,1.6-0.1c0.475,0.411,0.521,1.13,0.104,1.605C456.03,350.207,455.307,350.245,454.841,349.826z"/>
				</g>
			</g>
			<g>
				<g>
					<path fill-rule="evenodd" clip-rule="evenodd" fill="#3F85AA" d="M451.897,352.992c-0.452-0.436-0.468-1.149-0.044-1.603
						c0.425-0.451,1.144-0.471,1.603-0.046c0.462,0.428,0.484,1.147,0.05,1.607C453.074,353.413,452.349,353.428,451.897,352.992z"
						/>
				</g>
			</g>
			<g>
				<g>
					<path fill-rule="evenodd" clip-rule="evenodd" fill="#3F85AA" d="M448.853,356.062c-0.436-0.448-0.435-1.168,0.007-1.604
						c0.443-0.435,1.155-0.437,1.603,0.005c0.445,0.44,0.451,1.166-0.001,1.609C450.011,356.517,449.291,356.514,448.853,356.062z"
						/>
				</g>
			</g>
			<g>
				<g>
					<path fill-rule="evenodd" clip-rule="evenodd" fill="#3F85AA" d="M445.707,359.028c-0.422-0.464-0.396-1.182,0.062-1.602
						c0.453-0.423,1.168-0.398,1.601,0.057c0.431,0.455,0.41,1.178-0.053,1.609C446.851,359.521,446.13,359.492,445.707,359.028z"/>
				</g>
			</g>
			<g>
				<g>
					<path fill-rule="evenodd" clip-rule="evenodd" fill="#3F85AA" d="M442.467,361.891c-0.408-0.479-0.354-1.19,0.113-1.599
						s1.183-0.358,1.6,0.11c0.416,0.47,0.369,1.188-0.107,1.605S442.873,362.367,442.467,361.891z"/>
				</g>
			</g>
			<g>
				<g>
					<path fill-rule="evenodd" clip-rule="evenodd" fill="#3F85AA" d="M439.135,364.646c-0.391-0.49-0.313-1.201,0.165-1.595
						c0.481-0.392,1.195-0.318,1.596,0.163c0.401,0.483,0.331,1.201-0.16,1.601C440.246,365.217,439.526,365.137,439.135,364.646z"
						/>
				</g>
			</g>
			<g>
				<g>
					<path fill-rule="evenodd" clip-rule="evenodd" fill="#3F85AA" d="M435.716,367.292c-0.374-0.502-0.278-1.215,0.216-1.589
						c0.497-0.372,1.202-0.283,1.589,0.214c0.384,0.494,0.295,1.216-0.212,1.596C436.805,367.895,436.091,367.796,435.716,367.292z"
						/>
				</g>
			</g>
			<g>
				<g>
					<path fill-rule="evenodd" clip-rule="evenodd" fill="#3F85AA" d="M432.21,369.822c-0.358-0.516-0.237-1.223,0.27-1.579
						c0.505-0.361,1.211-0.243,1.58,0.265c0.368,0.508,0.252,1.221-0.263,1.589C433.278,370.461,432.568,370.338,432.21,369.822z"/>
				</g>
			</g>
			<g>
				<g>
					<path fill-rule="evenodd" clip-rule="evenodd" fill="#3F85AA" d="M428.623,372.236c-0.342-0.528-0.194-1.225,0.321-1.569
						s1.22-0.201,1.571,0.318s0.211,1.227-0.315,1.577C429.674,372.915,428.963,372.762,428.623,372.236z"/>
				</g>
			</g>
			<g>
				<g>
					<path fill-rule="evenodd" clip-rule="evenodd" fill="#3F85AA" d="M424.96,374.533c-0.323-0.537-0.155-1.233,0.372-1.56
						c0.529-0.324,1.226-0.16,1.56,0.37c0.335,0.532,0.173,1.235-0.367,1.565C425.986,375.243,425.284,375.071,424.96,374.533z"/>
				</g>
			</g>
			<g>
				<g>
					<path fill-rule="evenodd" clip-rule="evenodd" fill="#3F85AA" d="M421.223,376.708c-0.306-0.548-0.116-1.241,0.424-1.547
						c0.54-0.305,1.228-0.124,1.546,0.42c0.315,0.54,0.133,1.243-0.418,1.554C422.224,377.447,421.528,377.256,421.223,376.708z"/>
				</g>
			</g>
			<g>
				<g>
					<path fill-rule="evenodd" clip-rule="evenodd" fill="#3F85AA" d="M417.415,378.756c-0.287-0.558-0.074-1.242,0.476-1.529
						c0.547-0.293,1.232-0.082,1.531,0.47s0.089,1.242-0.469,1.541C418.392,379.53,417.703,379.313,417.415,378.756z"/>
				</g>
			</g>
			<g>
				<g>
					<path fill-rule="evenodd" clip-rule="evenodd" fill="#3F85AA" d="M413.543,380.679c-0.27-0.568-0.031-1.239,0.524-1.515
						c0.557-0.272,1.236-0.036,1.517,0.523c0.281,0.563,0.047,1.243-0.521,1.521C414.495,381.489,413.812,381.244,413.543,380.679z"
						/>
				</g>
			</g>
			<g>
				<g>
					<path fill-rule="evenodd" clip-rule="evenodd" fill="#3F85AA" d="M409.609,382.474c-0.249-0.573,0.008-1.245,0.574-1.497
						c0.567-0.25,1.235,0,1.497,0.571c0.262,0.569,0.01,1.25-0.57,1.505C410.532,383.31,409.86,383.052,409.609,382.474z"/>
				</g>
			</g>
			<g>
				<g>
					<path fill-rule="evenodd" clip-rule="evenodd" fill="#3F85AA" d="M405.618,384.136c-0.23-0.583,0.049-1.245,0.624-1.476
						c0.574-0.235,1.234,0.04,1.477,0.619c0.243,0.578-0.033,1.247-0.618,1.486C406.513,385.002,405.849,384.72,405.618,384.136z"/>
				</g>
			</g>
			<g>
				<g>
					<path fill-rule="evenodd" clip-rule="evenodd" fill="#3F85AA" d="M401.574,385.665c-0.212-0.593,0.092-1.237,0.672-1.455
						c0.581-0.217,1.233,0.084,1.457,0.671c0.224,0.586-0.076,1.241-0.669,1.463S401.785,386.254,401.574,385.665z"/>
				</g>
			</g>
			<g>
				<g>
					<path fill-rule="evenodd" clip-rule="evenodd" fill="#3F85AA" d="M397.482,387.061c-0.191-0.596,0.132-1.236,0.72-1.434
						c0.589-0.192,1.23,0.126,1.434,0.718c0.204,0.595-0.115,1.244-0.717,1.44C398.318,387.986,397.674,387.66,397.482,387.061z"/>
				</g>
			</g>
			<g>
				<g>
					<path fill-rule="evenodd" clip-rule="evenodd" fill="#3F85AA" d="M393.346,388.319c-0.172-0.604,0.172-1.234,0.767-1.408
						c0.595-0.175,1.224,0.162,1.408,0.764c0.184,0.599-0.156,1.238-0.764,1.417C394.149,389.269,393.517,388.923,393.346,388.319z"
						/>
				</g>
			</g>
			<g>
				<g>
					<path fill-rule="evenodd" clip-rule="evenodd" fill="#3F85AA" d="M389.169,389.438c-0.152-0.61,0.214-1.223,0.813-1.381
						c0.6-0.158,1.219,0.206,1.383,0.812s-0.199,1.229-0.811,1.39C389.943,390.42,389.321,390.045,389.169,389.438z"/>
				</g>
			</g>
			<g>
				<g>
					<path fill-rule="evenodd" clip-rule="evenodd" fill="#3F85AA" d="M384.959,390.421c-0.131-0.611,0.254-1.218,0.858-1.354
						c0.605-0.134,1.211,0.246,1.355,0.856c0.144,0.611-0.238,1.226-0.856,1.362C385.699,391.425,385.091,391.036,384.959,390.421z"
						/>
				</g>
			</g>
			<g>
				<g>
					<path fill-rule="evenodd" clip-rule="evenodd" fill="#3F85AA" d="M380.718,391.262c-0.111-0.617,0.293-1.21,0.903-1.323
						c0.609-0.116,1.202,0.283,1.326,0.898c0.124,0.614-0.279,1.217-0.9,1.335C381.424,392.287,380.829,391.88,380.718,391.262z"/>
				</g>
			</g>
			<g>
				<g>
					<path fill-rule="evenodd" clip-rule="evenodd" fill="#3F85AA" d="M376.452,391.963c-0.091-0.624,0.334-1.193,0.946-1.294
						c0.612-0.098,1.192,0.326,1.295,0.945c0.104,0.619-0.319,1.202-0.944,1.302C377.125,393.019,376.542,392.581,376.452,391.963z"
						/>
				</g>
			</g>
			<g>
				<g>
					<path fill-rule="evenodd" clip-rule="evenodd" fill="#3F85AA" d="M372.165,392.525c-0.07-0.623,0.372-1.19,0.988-1.265
						c0.616-0.071,1.181,0.362,1.264,0.985c0.083,0.621-0.358,1.198-0.987,1.271C372.801,393.594,372.235,393.149,372.165,392.525z"
						/>
				</g>
			</g>
			<g>
				<g>
					<path fill-rule="evenodd" clip-rule="evenodd" fill="#3F85AA" d="M367.861,392.941c-0.05-0.626,0.412-1.173,1.029-1.227
						c0.617-0.059,1.168,0.4,1.23,1.025c0.063,0.624-0.397,1.18-1.027,1.239C368.463,394.034,367.911,393.566,367.861,392.941z"/>
				</g>
			</g>
			<g>
				<g>
					<path fill-rule="evenodd" clip-rule="evenodd" fill="#3F85AA" d="M363.547,393.221c-0.029-0.625,0.45-1.158,1.069-1.195
						c0.619-0.034,1.155,0.443,1.196,1.067c0.042,0.628-0.436,1.168-1.068,1.203C364.113,394.334,363.576,393.85,363.547,393.221z"
						/>
				</g>
			</g>
			<g>
				<g>
					<path fill-rule="evenodd" clip-rule="evenodd" fill="#3F85AA" d="M359.226,393.358c-0.009-0.627,0.487-1.146,1.107-1.158
						c0.62-0.016,1.14,0.475,1.161,1.103c0.021,0.627-0.474,1.154-1.106,1.171C359.755,394.485,359.234,393.986,359.226,393.358z"/>
				</g>
			</g>
			<g>
				<g>
					<path fill-rule="evenodd" clip-rule="evenodd" fill="#3F85AA" d="M354.902,393.356c0.011-0.628,0.523-1.124,1.144-1.123
						c0.62,0.003,1.124,0.518,1.125,1.144c0.001,0.629-0.511,1.134-1.144,1.13C355.395,394.506,354.891,393.983,354.902,393.356z"/>
				</g>
			</g>
			<g>
				<g>
					<path fill-rule="evenodd" clip-rule="evenodd" fill="#3F85AA" d="M350.581,393.216c0.032-0.626,0.56-1.113,1.18-1.086
						c0.62,0.028,1.106,0.548,1.087,1.177c-0.019,0.625-0.547,1.124-1.179,1.096C351.036,394.374,350.549,393.843,350.581,393.216z"
						/>
				</g>
			</g>
			<g>
				<g>
					<path fill-rule="evenodd" clip-rule="evenodd" fill="#3F85AA" d="M346.267,392.933c0.052-0.627,0.595-1.087,1.214-1.046
						c0.619,0.044,1.088,0.587,1.048,1.214c-0.039,0.626-0.583,1.099-1.214,1.055C346.683,394.113,346.214,393.556,346.267,392.933z
						"/>
				</g>
			</g>
			<g>
				<g>
					<path fill-rule="evenodd" clip-rule="evenodd" fill="#3F85AA" d="M341.963,392.513c0.072-0.622,0.631-1.075,1.248-1.009
						c0.616,0.069,1.068,0.621,1.008,1.246c-0.06,0.624-0.619,1.086-1.249,1.016C342.342,393.697,341.891,393.138,341.963,392.513z"
						/>
				</g>
			</g>
			<g>
				<g>
					<path fill-rule="evenodd" clip-rule="evenodd" fill="#3F85AA" d="M337.677,391.947c0.093-0.621,0.666-1.052,1.28-0.963
						c0.614,0.082,1.047,0.654,0.967,1.276c-0.08,0.622-0.654,1.06-1.281,0.976C338.016,393.146,337.584,392.567,337.677,391.947z"
						/>
				</g>
			</g>
			<g>
				<g>
					<path fill-rule="evenodd" clip-rule="evenodd" fill="#3F85AA" d="M333.411,391.242c0.113-0.616,0.7-1.024,1.312-0.922
						c0.611,0.105,1.024,0.693,0.924,1.311c-0.101,0.621-0.688,1.038-1.312,0.93C333.71,392.456,333.298,391.86,333.411,391.242z"/>
				</g>
			</g>
			<g>
				<g>
					<path fill-rule="evenodd" clip-rule="evenodd" fill="#3F85AA" d="M329.171,390.398c0.134-0.612,0.734-1.007,1.341-0.879
						c0.606,0.129,1.002,0.721,0.881,1.338c-0.121,0.614-0.724,1.021-1.343,0.889C329.431,391.615,329.037,391.012,329.171,390.398z
						"/>
				</g>
			</g>
			<g>
				<g>
					<path fill-rule="evenodd" clip-rule="evenodd" fill="#3F85AA" d="M324.961,389.412c0.154-0.609,0.766-0.978,1.369-0.832
						c0.604,0.144,0.978,0.756,0.836,1.367s-0.755,0.989-1.371,0.843C325.18,390.642,324.808,390.02,324.961,389.412z"/>
				</g>
			</g>
			<g>
				<g>
					<path fill-rule="evenodd" clip-rule="evenodd" fill="#3F85AA" d="M320.786,388.289c0.174-0.602,0.798-0.952,1.396-0.788
						c0.597,0.167,0.951,0.791,0.79,1.396c-0.162,0.607-0.789,0.966-1.398,0.795C320.963,389.525,320.612,388.893,320.786,388.289z"
						/>
				</g>
			</g>
			<g>
				<g>
					<path fill-rule="evenodd" clip-rule="evenodd" fill="#3F85AA" d="M316.65,387.028c0.194-0.597,0.831-0.93,1.422-0.741
						c0.591,0.188,0.926,0.816,0.743,1.419c-0.181,0.599-0.821,0.942-1.424,0.75C316.788,388.265,316.457,387.625,316.65,387.028z"
						/>
				</g>
			</g>
			<g>
				<g>
					<path fill-rule="evenodd" clip-rule="evenodd" fill="#3F85AA" d="M312.56,385.629c0.214-0.591,0.86-0.897,1.445-0.692
						c0.586,0.202,0.897,0.85,0.696,1.443c-0.201,0.595-0.85,0.909-1.448,0.703C312.655,386.873,312.346,386.218,312.56,385.629z"/>
				</g>
			</g>
			<g>
				<g>
					<path fill-rule="evenodd" clip-rule="evenodd" fill="#3F85AA" d="M308.517,384.096c0.233-0.582,0.889-0.866,1.468-0.645
						c0.578,0.225,0.868,0.881,0.647,1.467c-0.222,0.589-0.88,0.882-1.47,0.652C308.57,385.345,308.284,384.679,308.517,384.096z"/>
				</g>
			</g>
			<g>
				<g>
					<path fill-rule="evenodd" clip-rule="evenodd" fill="#3F85AA" d="M304.526,382.432c0.252-0.574,0.919-0.843,1.489-0.598
						c0.568,0.248,0.84,0.904,0.599,1.486c-0.239,0.577-0.911,0.858-1.491,0.605C304.541,383.676,304.274,383.007,304.526,382.432z"
						/>
				</g>
			</g>
			<g>
				<g>
					<path fill-rule="evenodd" clip-rule="evenodd" fill="#3F85AA" d="M300.595,380.633c0.271-0.565,0.945-0.81,1.506-0.545
						c0.563,0.26,0.809,0.934,0.55,1.505c-0.26,0.571-0.936,0.82-1.511,0.557C300.567,381.879,300.324,381.199,300.595,380.633z"/>
				</g>
			</g>
			<g>
				<g>
					<path fill-rule="evenodd" clip-rule="evenodd" fill="#3F85AA" d="M296.724,378.707c0.291-0.559,0.969-0.772,1.524-0.496
						c0.554,0.279,0.776,0.963,0.498,1.524c-0.278,0.563-0.962,0.788-1.527,0.503C296.653,379.956,296.435,379.262,296.724,378.707z
						"/>
				</g>
			</g>
			<g>
				<g>
					<path fill-rule="evenodd" clip-rule="evenodd" fill="#3F85AA" d="M292.918,376.655c0.307-0.545,0.997-0.745,1.541-0.446
						c0.542,0.301,0.745,0.985,0.448,1.538c-0.296,0.553-0.99,0.762-1.543,0.454C292.809,377.896,292.609,377.204,292.918,376.655z"
						/>
				</g>
			</g>
			<g>
				<g>
					<path fill-rule="evenodd" clip-rule="evenodd" fill="#3F85AA" d="M289.183,374.479c0.326-0.536,1.021-0.714,1.554-0.395
						c0.533,0.316,0.713,1.007,0.398,1.551c-0.314,0.542-1.014,0.728-1.558,0.404C289.033,375.714,288.857,375.015,289.183,374.479z
						"/>
				</g>
			</g>
			<g>
				<g>
					<path fill-rule="evenodd" clip-rule="evenodd" fill="#3F85AA" d="M285.521,372.179c0.344-0.526,1.042-0.676,1.565-0.343
						c0.524,0.332,0.679,1.033,0.346,1.565c-0.332,0.532-1.035,0.689-1.57,0.352C285.329,373.412,285.179,372.703,285.521,372.179z"
						/>
				</g>
			</g>
			<g>
				<g>
					<path fill-rule="evenodd" clip-rule="evenodd" fill="#3F85AA" d="M281.937,369.762c0.36-0.515,1.063-0.641,1.576-0.293
						c0.511,0.352,0.643,1.058,0.294,1.577c-0.351,0.522-1.058,0.656-1.58,0.299C281.703,370.989,281.577,370.275,281.937,369.762z"
						/>
				</g>
			</g>
			<g>
				<g>
					<path fill-rule="evenodd" clip-rule="evenodd" fill="#3F85AA" d="M278.433,367.229c0.376-0.5,1.087-0.61,1.586-0.241
						c0.497,0.371,0.61,1.073,0.243,1.584c-0.366,0.508-1.083,0.626-1.59,0.248C278.163,368.443,278.055,367.731,278.433,367.229z"
						/>
				</g>
			</g>
			<g>
				<g>
					<path fill-rule="evenodd" clip-rule="evenodd" fill="#3F85AA" d="M275.015,364.58c0.393-0.489,1.106-0.573,1.591-0.188
						c0.488,0.383,0.575,1.093,0.192,1.591c-0.383,0.496-1.1,0.587-1.598,0.196C274.705,365.786,274.622,365.069,275.015,364.58z"/>
				</g>
			</g>
			<g>
				<g>
					<path fill-rule="evenodd" clip-rule="evenodd" fill="#3F85AA" d="M271.686,361.822c0.41-0.478,1.121-0.533,1.597-0.136
						s0.537,1.113,0.138,1.598c-0.399,0.483-1.117,0.548-1.603,0.143C271.333,363.021,271.278,362.297,271.686,361.822z"/>
				</g>
			</g>
			<g>
				<g>
					<path fill-rule="evenodd" clip-rule="evenodd" fill="#3F85AA" d="M268.448,358.957c0.424-0.462,1.138-0.497,1.601-0.084
						c0.46,0.415,0.5,1.131,0.086,1.601c-0.416,0.473-1.136,0.515-1.606,0.091C268.057,360.143,268.023,359.42,268.448,358.957z"/>
				</g>
			</g>
			<g>
				<g>
					<path fill-rule="evenodd" clip-rule="evenodd" fill="#3F85AA" d="M265.304,355.988c0.439-0.448,1.158-0.463,1.604-0.032
						c0.444,0.433,0.466,1.144,0.035,1.602c-0.429,0.456-1.156,0.48-1.609,0.039C264.878,357.157,264.865,356.437,265.304,355.988z"
						/>
				</g>
			</g>
			<g>
				<g>
					<path fill-rule="evenodd" clip-rule="evenodd" fill="#3F85AA" d="M262.262,352.916c0.453-0.434,1.171-0.424,1.602,0.022
						c0.435,0.442,0.428,1.158-0.017,1.602c-0.444,0.442-1.167,0.438-1.61-0.014C261.797,354.071,261.809,353.35,262.262,352.916z"
						/>
				</g>
			</g>
			<g>
				<g>
					<path fill-rule="evenodd" clip-rule="evenodd" fill="#3F85AA" d="M259.321,349.747c0.469-0.42,1.18-0.382,1.601,0.074
						c0.42,0.456,0.387,1.174-0.072,1.602c-0.459,0.429-1.178,0.398-1.607-0.067C258.814,350.891,258.855,350.164,259.321,349.747z"
						/>
				</g>
			</g>
			<g>
				<g>
					<path fill-rule="evenodd" clip-rule="evenodd" fill="#3F85AA" d="M256.484,346.484c0.48-0.402,1.193-0.344,1.598,0.126
						c0.402,0.472,0.348,1.187-0.124,1.598c-0.474,0.414-1.194,0.362-1.604-0.12C255.942,347.609,256.002,346.889,256.484,346.484z"
						/>
				</g>
			</g>
			<g>
				<g>
					<path fill-rule="evenodd" clip-rule="evenodd" fill="#3F85AA" d="M253.755,343.131c0.494-0.387,1.208-0.308,1.594,0.178
						c0.385,0.486,0.313,1.194-0.175,1.593c-0.484,0.396-1.208,0.324-1.6-0.172C253.18,344.234,253.261,343.519,253.755,343.131z"/>
				</g>
			</g>
			<g>
				<g>
					<path fill-rule="evenodd" clip-rule="evenodd" fill="#3F85AA" d="M251.14,339.688c0.506-0.371,1.216-0.268,1.585,0.231
						c0.375,0.494,0.272,1.204-0.226,1.585s-1.213,0.281-1.595-0.224C250.527,340.772,250.633,340.059,251.14,339.688z"/>
				</g>
			</g>
			<g>
				<g>
					<path fill-rule="evenodd" clip-rule="evenodd" fill="#3F85AA" d="M248.638,336.162c0.52-0.355,1.219-0.224,1.577,0.282
						c0.356,0.508,0.23,1.215-0.28,1.579c-0.511,0.365-1.22,0.241-1.584-0.277C247.984,337.23,248.121,336.515,248.638,336.162z"/>
				</g>
			</g>
			<g>
				<g>
					<path fill-rule="evenodd" clip-rule="evenodd" fill="#3F85AA" d="M246.251,332.557c0.528-0.336,1.229-0.186,1.568,0.334
						c0.336,0.521,0.19,1.221-0.331,1.568c-0.523,0.348-1.232,0.203-1.575-0.329C245.567,333.6,245.721,332.895,246.251,332.557z"/>
				</g>
			</g>
			<g>
				<g>
					<path fill-rule="evenodd" clip-rule="evenodd" fill="#3F85AA" d="M243.985,328.875c0.54-0.319,1.238-0.147,1.557,0.385
						c0.319,0.531,0.153,1.225-0.382,1.556c-0.532,0.329-1.239,0.163-1.564-0.38C243.271,329.894,243.445,329.193,243.985,328.875z"
						/>
				</g>
			</g>
			<g>
				<g>
					<path fill-rule="evenodd" clip-rule="evenodd" fill="#3F85AA" d="M241.843,325.119c0.551-0.302,1.239-0.104,1.541,0.437
						c0.306,0.54,0.112,1.23-0.433,1.543c-0.544,0.313-1.239,0.119-1.551-0.431C241.092,326.115,241.293,325.42,241.843,325.119z"/>
				</g>
			</g>
			<g>
				<g>
					<path fill-rule="evenodd" clip-rule="evenodd" fill="#3F85AA" d="M239.825,321.295c0.561-0.283,1.239-0.062,1.527,0.487
						c0.286,0.55,0.067,1.235-0.485,1.528c-0.556,0.295-1.242,0.079-1.534-0.482C239.039,322.268,239.266,321.578,239.825,321.295z"
						/>
				</g>
			</g>
			<g>
				<g>
					<path fill-rule="evenodd" clip-rule="evenodd" fill="#3F85AA" d="M237.933,317.408c0.567-0.264,1.247-0.024,1.512,0.536
						c0.263,0.562,0.031,1.234-0.534,1.511c-0.563,0.275-1.25,0.041-1.519-0.532C237.121,318.351,237.362,317.673,237.933,317.408z"
						/>
				</g>
			</g>
			<g>
				<g>
					<path fill-rule="evenodd" clip-rule="evenodd" fill="#3F85AA" d="M236.172,313.459c0.578-0.245,1.246,0.018,1.491,0.587
						c0.25,0.567-0.009,1.235-0.582,1.492c-0.572,0.257-1.247-0.003-1.502-0.582C235.329,314.375,235.595,313.704,236.172,313.459z"
						/>
				</g>
			</g>
			<g>
				<g>
					<path fill-rule="evenodd" clip-rule="evenodd" fill="#3F85AA" d="M234.543,309.454c0.587-0.227,1.238,0.062,1.471,0.636
						c0.231,0.575-0.053,1.235-0.634,1.473c-0.581,0.238-1.243-0.045-1.479-0.632C233.664,310.344,233.96,309.679,234.543,309.454z"
						/>
				</g>
			</g>
			<g>
				<g>
					<path fill-rule="evenodd" clip-rule="evenodd" fill="#3F85AA" d="M233.046,305.398c0.591-0.206,1.24,0.101,1.451,0.684
						c0.207,0.584-0.094,1.232-0.682,1.45c-0.589,0.219-1.246-0.084-1.458-0.681C232.142,306.257,232.452,305.604,233.046,305.398z"
						/>
				</g>
			</g>
			<g>
				<g>
					<path fill-rule="evenodd" clip-rule="evenodd" fill="#3F85AA" d="M231.686,301.294c0.599-0.187,1.238,0.142,1.426,0.732
						c0.19,0.59-0.131,1.228-0.728,1.427c-0.594,0.198-1.242-0.126-1.437-0.729C230.756,302.121,231.086,301.48,231.686,301.294z"/>
				</g>
			</g>
			<g>
				<g>
					<path fill-rule="evenodd" clip-rule="evenodd" fill="#3F85AA" d="M230.462,297.147c0.607-0.167,1.227,0.184,1.4,0.779
						c0.173,0.595-0.175,1.223-0.776,1.402c-0.602,0.179-1.233-0.168-1.41-0.776S229.859,297.313,230.462,297.147z"/>
				</g>
			</g>
			<g>
				<g>
					<path fill-rule="evenodd" clip-rule="evenodd" fill="#3F85AA" d="M229.375,292.962c0.608-0.146,1.224,0.223,1.376,0.825
						c0.148,0.602-0.217,1.217-0.823,1.375c-0.608,0.16-1.231-0.208-1.383-0.822C228.391,293.727,228.764,293.109,229.375,292.962z"
						/>
				</g>
			</g>
			<g>
				<g>
					<path fill-rule="evenodd" clip-rule="evenodd" fill="#3F85AA" d="M228.429,288.744c0.615-0.126,1.218,0.263,1.346,0.87
						c0.131,0.606-0.252,1.208-0.866,1.347c-0.61,0.139-1.223-0.248-1.356-0.867C227.422,289.475,227.814,288.87,228.429,288.744z"
						/>
				</g>
			</g>
			<g>
				<g>
					<path fill-rule="evenodd" clip-rule="evenodd" fill="#3F85AA" d="M227.624,284.496c0.621-0.106,1.201,0.304,1.316,0.914
						c0.113,0.61-0.296,1.2-0.913,1.319s-1.209-0.29-1.325-0.912C226.585,285.194,227.007,284.602,227.624,284.496z"/>
				</g>
			</g>
			<g>
				<g>
					<path fill-rule="evenodd" clip-rule="evenodd" fill="#3F85AA" d="M226.956,280.224c0.62-0.085,1.199,0.343,1.288,0.957
						c0.087,0.614-0.334,1.189-0.955,1.288c-0.619,0.098-1.206-0.328-1.295-0.955C225.903,280.887,226.332,280.31,226.956,280.224z"
						/>
				</g>
			</g>
			<g>
				<g>
					<path fill-rule="evenodd" clip-rule="evenodd" fill="#3F85AA" d="M226.433,275.933c0.624-0.065,1.185,0.382,1.251,0.999
						c0.074,0.616-0.371,1.178-0.994,1.255c-0.623,0.078-1.189-0.369-1.266-0.997C225.357,276.561,225.809,275.998,226.433,275.933z
						"/>
				</g>
			</g>
			<g>
				<g>
					<path fill-rule="evenodd" clip-rule="evenodd" fill="#3F85AA" d="M226.048,271.626c0.625-0.044,1.167,0.421,1.221,1.039
						c0.051,0.618-0.416,1.166-1.039,1.222c-0.627,0.058-1.176-0.407-1.228-1.038C224.948,272.219,225.422,271.67,226.048,271.626z"
						/>
				</g>
			</g>
			<g>
				<g>
					<path fill-rule="evenodd" clip-rule="evenodd" fill="#3F85AA" d="M225.804,267.309c0.627-0.024,1.159,0.459,1.187,1.079
						c0.028,0.62-0.447,1.151-1.075,1.188c-0.625,0.037-1.167-0.445-1.196-1.077C224.691,267.866,225.177,267.333,225.804,267.309z"
						/>
				</g>
			</g>
			<g>
				<g>
					<path fill-rule="evenodd" clip-rule="evenodd" fill="#3F85AA" d="M225.703,262.987c0.629-0.004,1.135,0.496,1.15,1.116
						c0.012,0.62-0.488,1.136-1.115,1.152c-0.627,0.017-1.146-0.483-1.158-1.116C224.564,263.507,225.077,262.991,225.703,262.987z"
						/>
				</g>
			</g>
		</g>
	</g>
</g>
<line fill="none" stroke="#41719C" stroke-miterlimit="8" stroke-dasharray="12192,12192" x1="378.543" y1="111.115" x2="378.543" y2="111.115"/>
<g>
	<g>
		<path fill="#41719C" d="M286.225,150.853c0.792-0.92,2.277-2.639,3.677-2.051c1.629,0.684,1.505,3.315,1.375,4.696
			c0.518-0.221,1.035-0.442,1.553-0.664c-1.017-0.145-3.039-0.088-3.818-0.891c-0.645-0.665,1.095-2.79,1.417-3.277
			c-0.424,0.181-0.848,0.361-1.271,0.542c-0.379-0.042-0.18-0.048-0.37,0.319c-0.166,0.321-0.418,0.582-0.682,0.822
			c-0.303,0.175-0.182,0.199,0.363,0.07c-0.029-0.026,0.19-0.641,0.208-0.702c0.114-0.382,0.266-0.747,0.455-1.098
			c0.122-0.226,0.268-0.418,0.456-0.591c-0.023,0.021-0.521,0.034-0.273,0.096c0.293,0.074,0.542,0.454,0.698,0.684
			c0.452,0.664,0.58,1.582,0.346,2.342c-0.372,1.206-2.167,0.56-2.971,0.324c-0.44-0.129-1.684,0.151-1.55,0.812
			c0.168,0.831,1.567,0.268,1.96-0.031c0.357-0.272,0.674-0.588,0.992-0.904c0.499-0.497,1.077-0.635,0.024-0.435
			c-0.258-0.061-0.515-0.123-0.772-0.184c-0.026-0.223-0.06-0.258-0.101-0.105c-0.142,0.304,0.003,0.512,0.321,0.593
			c-0.135-0.034,0.06,0.334,0.096,0.531c0.027,0.172,0.034,0.345,0.021,0.52c-0.017,0.457-0.276,0.393,0.298,0.109
			c0.325-0.039,0.65-0.078,0.976-0.118c-0.015-0.014-0.029-0.028-0.044-0.042c-0.295,0.354-0.59,0.707-0.885,1.06
			c0.466-0.079,1.107-0.241,1.272-0.759c0.049-0.152,0.029-0.313,0.011-0.469c-0.051-0.448-0.619-0.097,0.077-0.132
			c-0.282-0.104-0.563-0.209-0.844-0.314c0.081,0.355,0.175,0.71,0.168,1.079c0.008-0.426,1.264-0.104,0.348-0.294
			c-0.633-0.131-1.256-0.244-1.904-0.265c-0.775-0.026-2.043,1.121-0.733,1.164c1.027,0.034,2.079,0.527,3.104,0.253
			c1.276-0.342,1.196-1.378,0.95-2.454c-0.078-0.342-0.59-0.327-0.844-0.314c-0.701,0.036-1.626,0.175-2.07,0.802
			c-0.167,0.235-0.378,1.178-0.078,0.924c0.301-0.129,0.603-0.257,0.904-0.386c-0.039,0.007-0.078,0.013-0.117,0.02
			c-0.412,0.07-1.57,0.549-0.885,1.06c1.876,1.399,3.332-2.576,1.347-3.081c0.107,0.198,0.214,0.396,0.321,0.593
			c0.117-0.252,0.271-0.498,0.08-0.753c-0.15-0.201-0.554-0.226-0.772-0.184c-0.604,0.115-0.985,0.38-1.418,0.797
			c-0.238,0.228-0.467,0.465-0.702,0.696c-0.092,0.09-0.185,0.179-0.279,0.266c-0.672,0.63,0.875-0.94,1.113,0.239
			c-0.517,0.271-1.033,0.541-1.55,0.812c2.048,0.601,5.325,0.788,6.113-1.772c0.441-1.434-0.445-3.436-1.947-3.813
			c-0.912-0.229-1.933,0.196-2.56,0.854c-0.6,0.63-1.81,2.745-1.038,3.446c0.999,0.907,2.665-0.271,3.333-1.034
			c0.698-0.798,1.241-2.055-0.23-2.217c-0.434-0.048-1.025,0.169-1.271,0.542c-0.563,0.851-2.283,2.894-1.469,4.033
			c0.843,1.181,3.259,1.144,4.511,1.322c0.43,0.061,1.495-0.054,1.553-0.664c0.203-2.146,0.066-4.9-2.356-5.658
			c-2.328-0.727-4.808,1.248-6.198,2.861C283.9,151.362,285.772,151.378,286.225,150.853L286.225,150.853z"/>
	</g>
</g>
<g>
	<g>
		<path fill="#41719C" d="M378.871,135.086c0.566-1.419-0.155-2.671,0.681-4.082c-0.422,0.187-0.844,0.374-1.266,0.56
			c1.253,0.017,1.406,0.359,1.464,1.414c0.027,0.492,0.136,0.986,0.137,1.478c0.001,0.271-0.107,0.037,0.287-0.102
			c-0.183,0.064-0.377,0.103-0.565,0.147c-0.831,0.198-1.66,0.395-2.483,0.625c0.373,0.105,0.747,0.21,1.12,0.315
			c-0.164-0.73-1.058-5.039,0.082-5.212c1.069-0.163,2.42,0.992,3.128,1.657c0.375,0.353,0.766,0.772,0.99,1.241
			c0.277,0.578-0.11,0.687-0.634,1.255c-0.689,0.749-1.608,1.535-2.653,1.664c-1.619,0.2-2.549-2.196-2.954-3.326
			c-0.44,0.295-0.88,0.59-1.32,0.885c0.659,0.082,4.646,0.401,4.309-1.277c-0.138-0.688-1.476-0.322-1.758,0.036
			c-0.492,0.625-0.002,1.604,0.239,2.234c0.272,0.713,1.865,0.351,1.938-0.355c0.004-0.396,0.101-0.77,0.292-1.122
			c0.52-0.532,0.418-0.648-0.306-0.35c-0.204-0.123-0.407-0.245-0.611-0.368c0.141,0.466-0.163,0.731-0.459,1.033
			c0.568,0.097,1.136,0.193,1.704,0.29c0.173-0.404,0.334-0.837,0.609-1.188c-0.347,0.091-0.694,0.183-1.042,0.274
			c0.058,0.185,0.099,0.374,0.122,0.566c0.209,1.221-0.028,2.57-0.213,3.778c0.442-0.241,0.884-0.482,1.327-0.723
			c-1.226-0.073-0.901-1.051-1.504-1.817c-0.478-0.606-2.332,0.105-1.781,0.805c0.343,0.435,0.271,1.046,0.612,1.48
			c0.492,0.625,1.209,0.74,1.965,0.785c0.444,0.026,1.245-0.185,1.327-0.723c0.169-1.104,0.914-4.42-0.313-5.266
			c-1.375-0.947-2.5,0.888-2.931,1.895c-0.417,0.974,1.315,0.684,1.704,0.29c0.555-0.565,1.065-1.146,0.808-1.997
			c-0.083-0.272-0.37-0.33-0.611-0.368c-1.559-0.244-2.51,1.655-2.641,2.918c0.646-0.118,1.292-0.237,1.938-0.355
			c-0.144-0.376-0.275-0.749-0.374-1.14c-0.098-0.389,0.077-0.5-0.213-0.131c-0.586,0.012-1.171,0.024-1.757,0.036
			c-0.065-0.325,0.41-0.454,0.035-0.401c-0.559,0.079-1.15-0.024-1.703-0.093c-0.386-0.048-1.535,0.285-1.32,0.885
			c0.617,1.725,1.508,3.453,3.399,3.969c1.424,0.389,2.946-0.247,4.123-1.006c0.948-0.611,2.335-1.731,2.691-2.845
			c0.205-0.642-0.496-1.453-0.87-1.882c-1.223-1.404-3.277-2.763-5.221-2.467c-3.343,0.508-2.608,4.614-2.082,6.952
			c0.099,0.441,0.807,0.403,1.12,0.315c1.11-0.31,4.036-0.434,4.389-1.903c0.172-0.717-0.14-1.725-0.164-2.447
			c-0.046-1.351-1.51-1.598-2.663-1.613c-0.46-0.006-1.014,0.134-1.266,0.56c-0.415,0.699-0.694,1.331-0.689,2.153
			c0.004,0.673,0.273,1.263,0.008,1.928C376.662,135.919,378.596,135.775,378.871,135.086L378.871,135.086z"/>
	</g>
</g>
<g>
	<g>
		<path fill="#41719C" d="M457.08,179.513c-1.33-2.06-1.716-4.041-0.657-6.327c-0.495,0.175-0.99,0.35-1.485,0.524
			c1.969,0.376,4.688,1.061,5.351,3.254c0.446,1.478-0.523,2.954-1.556,3.917c-0.993,0.927-2.458,1.586-3.811,1.17
			c-2.012-0.618-2.421-3.359-2.527-5.114c-0.439,0.298-0.879,0.596-1.318,0.894c1.259,0.165,2.479,0.161,3.74,0.073
			c-0.326,0.022-0.254-0.269-0.246,0.163c0.013,0.647-0.03,1.297-0.033,1.945c-0.005,0.994,1.722,0.482,1.945-0.188
			c0.256-0.765,0.511-1.53,0.766-2.295c0.175-0.524,0.603-1.279,0.596-1.838c-0.012-0.929-1.934-0.578-1.945,0.188
			c-0.021,1.294-0.007,2.635-0.271,3.906c-0.005,0.059-0.021,0.112-0.05,0.162c0.52-0.11,1.04-0.221,1.561-0.332
			c-0.106-0.265-0.218-0.528-0.335-0.788c-0.194-0.446-0.424-0.876-0.655-1.303c-0.346-0.637,0.204-1.829,0.334-2.461
			c-0.576,0.204-1.151,0.408-1.728,0.612c1.44,1.014,1.687,2.545,2.587,3.968c0.244-0.33,0.488-0.659,0.733-0.988
			c-0.71,0.187-1.402,0.417-2.104,0.63c-0.86,0.262-1.663-0.196-2.427-0.565c-0.115,0.337-0.231,0.675-0.348,1.012
			c0.853-0.407,1.659-0.74,2.616-0.696c0.691,0.032,1.372,0.143,2.066,0.156c-0.207-0.18-0.414-0.36-0.62-0.541
			c-0.203,0.883-0.588,2.625-1.631,2.949c-0.636,0.197-1.443-0.407-1.864-0.813c-0.396-0.382-0.855-0.979-0.729-1.564
			c-0.021,0.099-0.059,0.03,0.212,0.037c0.81,0.021,1.614,0.31,2.371,0.572c0.729,0.252,2.273-0.801,1.145-1.191
			c-1.502-0.52-3.916-1.263-5.254,0.061c-0.902,0.894-0.261,2.132,0.476,2.895c0.97,1.005,2.435,1.531,3.813,1.205
			c2.072-0.492,2.97-2.431,3.407-4.339c0.079-0.343-0.35-0.535-0.62-0.541c-0.949-0.018-1.899-0.219-2.849-0.166
			c-1.193,0.068-2.283,0.475-3.354,0.986c-0.312,0.149-0.917,0.737-0.348,1.012c0.946,0.458,1.929,0.932,3.006,0.898
			c1.149-0.035,2.248-0.542,3.348-0.833c0.402-0.106,1.042-0.501,0.733-0.988c-1.01-1.596-1.231-3.052-2.856-4.195
			c-0.495-0.349-1.601-0.005-1.728,0.612c-0.217,1.057-0.696,2.078-0.169,3.082c0.508,0.965,0.739,2.751,2.191,2.362
			c1.698-0.455,1.264-3.681,1.284-5.004c-0.648,0.063-1.297,0.125-1.945,0.188c0.007,0.56-0.422,1.315-0.596,1.839
			c-0.256,0.765-0.511,1.53-0.766,2.295c0.648-0.063,1.297-0.125,1.945-0.188c0.004-0.809,0.464-2.715-0.559-3.106
			c-0.411-0.157-0.896-0.078-1.322-0.043c-0.946,0.078-1.88,0.011-2.82-0.113c-0.532-0.07-1.356,0.272-1.318,0.894
			c0.146,2.401,0.915,5.05,3.459,5.832c2.041,0.627,4.389-0.3,5.973-1.582c1.479-1.197,2.686-2.992,2.391-4.97
			c-0.411-2.75-3.935-3.783-6.203-4.217c-0.479-0.092-1.248,0.012-1.485,0.524c-1.214,2.621-0.833,4.899,0.704,7.279
			C455.72,180.972,457.581,180.288,457.08,179.513L457.08,179.513z"/>
	</g>
</g>
<g>
	<g>
		<path fill="#41719C" d="M228.748,214.255c3.584,1.53,7.715,5.014,6.837,9.403c-0.949,4.748-8.254,0.506-9.548-2.197
			c-1.021-2.135,1.361-4.329,3.39-4.405c3.454-0.129,0.913,3.988-0.038,5.213c0.639-0.145,1.278-0.29,1.917-0.434
			c-0.227-1.36-0.454-2.721-0.681-4.082c-0.532,0.213-1.064,0.426-1.596,0.639c4.169,0.181,3.667,3.312,1.72,5.917
			c0.639-0.145,1.278-0.29,1.917-0.434c-0.53-1-1.152-1.896-1.767-2.838c-0.545-0.835,0.723-2.507,1.072-3.201
			c-0.639,0.145-1.278,0.29-1.917,0.434c-0.031,1.381-0.113,2.775-0.873,3.965c-0.38,0.596-1.551-0.488-1.883-0.795
			c-0.557-0.515-0.938-1.205-1.115-1.936c-0.542-2.235,3.583-1.95,4.865-1.81c1.621,0.177,3.139,0.824,4.49,1.711
			c1.693,1.112,3.845,3.605,0.694,4.261c-3.517,0.732-6.553-1.706-6.288-5.234c-0.383,0.199-0.767,0.398-1.15,0.597
			c1.059-0.24,0.635,1.089,1.314,1.347c0.531,0.202,1.971-0.591,1.823-0.647c-0.529-0.201-0.262-1.043-0.756-1.311
			c-0.662-0.358-1.302-0.225-2.012-0.064c-0.28,0.063-1.121,0.204-1.15,0.597c-0.501,6.661,7.917,6.284,11.906,3.837
			c0.063-0.038,0.269-0.159,0.23-0.273c-1.367-4.041-5.604-5.674-9.583-5.667c-1.758,0.004-6.008,0.395-6.346,2.682
			c-0.283,1.917,2.203,3.659,3.854,3.713c3.179,0.106,3.855-2.924,3.913-5.491c0.008-0.365-1.758,0.119-1.917,0.434
			c-0.458,0.906-1.146,1.885-1.247,2.922c-0.081,0.834,1.55,2.601,1.912,3.284c0.248,0.467,1.691-0.132,1.917-0.434
			c1.028-1.376,2.12-3.068,1.378-4.814c-0.568-1.338-2.533-1.461-3.74-1.513c-0.265-0.012-1.67,0.191-1.596,0.639
			c0.227,1.36,0.454,2.721,0.681,4.082c0.08,0.479,1.736-0.201,1.917-0.434c0.888-1.144,2.51-3.141,1.676-4.708
			c-0.563-1.058-2.239-0.974-3.222-0.843c-2.518,0.336-6.625,2.151-5.74,5.347c0.663,2.395,3.828,3.794,5.909,4.487
			c1.984,0.66,4.35,0.448,6.1-0.725c1.792-1.201,1.832-3.53,1.274-5.394c-0.934-3.116-3.873-5.261-6.717-6.475
			C230.053,213.387,228.581,214.184,228.748,214.255L228.748,214.255z"/>
	</g>
</g>
<g>
	<g>
		<path fill="#41719C" d="M232.585,312.825c-0.723-1.136-3.258-5.106-1.22-6.274c1.517-0.87,3.912,0.246,5.212,1.043
			c1.82,1.117,3.262,2.981,3.077,5.202c-0.17,2.029-2.171,4.7-4.021,5.569c-1.828,0.859-1.654-6.74-1.577-7.47
			c0.096-0.91,0.327-2.973,0.86-3.451c-0.393,0.353-1.029-0.179-0.727,0.22c0.173,0.229,0.27,0.508,0.368,0.773
			c0.427,1.149,0.622,2.395,0.818,3.599c0.042,0.265,0.082,0.529,0.12,0.794c0.263-0.308,0.525-0.614,0.788-0.922
			c-0.907,0.227-1.814,0.453-2.721,0.68c0.381,0.135,0.762,0.27,1.144,0.404c-0.593-2.282-1.177-4.248-0.668-6.617
			c-0.652,0.049-1.305,0.098-1.957,0.146c0,1.588,0,3.175,0,4.763c0.648-0.11,1.296-0.222,1.944-0.332
			c-0.567-1.715-0.421-2.83,0.013-4.577c-0.648,0.11-1.296,0.222-1.944,0.332c0.601,1.742,1.271,3.392,1.348,5.257
			c0.042,1.012,1.957,0.728,1.957-0.146c0-2.041,0-4.081,0-6.122c-0.648,0.11-1.296,0.222-1.944,0.332
			c0.547,2.923,0.658,5.751-0.013,8.658c0.652-0.049,1.305-0.098,1.957-0.146c0.042-1.853,0.625-3.601,0.68-5.442
			c-0.574,0.21-1.148,0.421-1.723,0.632c0.841,0.682,2,1.412,2.329,2.506c0.267,0.885-0.343,2.275-0.522,3.131
			c0.354-0.261,0.709-0.521,1.064-0.781c-2.051,0.094-4.065,0.625-6.123,0.681c0.293,0.149,0.587,0.3,0.88,0.449
			c-0.593-2.282-1.177-4.248-0.667-6.617c-0.267,0.245-0.534,0.491-0.801,0.736c0.467-0.115,0.728,1.174,1.305,1.35
			c0.831,0.252,2.282-0.95,1.115-1.305c0.119,0.036-0.29-0.986-0.511-1.158c-0.685-0.534-1.473-0.409-2.265-0.213
			c-0.373,0.092-0.718,0.35-0.801,0.736c-0.538,2.498,0.064,4.568,0.693,6.988c0.099,0.38,0.552,0.458,0.88,0.449
			c2.057-0.055,4.072-0.586,6.123-0.681c0.458-0.021,0.965-0.309,1.064-0.781c0.241-1.146,0.673-2.32,0.498-3.502
			c-0.193-1.3-1.86-2.366-2.773-3.105c-0.468-0.379-1.702-0.056-1.723,0.632c-0.056,1.842-0.638,3.59-0.68,5.442
			c-0.024,1.055,1.77,0.665,1.957-0.146c0.699-3.03,0.557-5.99-0.013-9.029c-0.157-0.837-1.944-0.443-1.944,0.332
			c0,2.041,0,4.081,0,6.122c0.652-0.049,1.305-0.098,1.957-0.146c-0.083-2.002-0.726-3.749-1.374-5.628
			c-0.303-0.88-1.763-0.396-1.944,0.332c-0.471,1.893-0.6,3.099,0.013,4.948c0.262,0.791,1.944,0.478,1.944-0.332
			c0-1.588,0-3.175,0-4.763c0-1.05-1.78-0.677-1.957,0.146c-0.538,2.498,0.064,4.568,0.693,6.988
			c0.123,0.474,0.767,0.499,1.144,0.404c0.907-0.227,1.814-0.453,2.721-0.68c0.424-0.105,0.858-0.445,0.788-0.922
			c-0.25-1.704-0.382-4.276-1.597-5.656c-0.86-0.977-2.179-0.331-2.759,0.578c-1.522,2.386-1.325,6.565-0.861,9.211
			c0.61,3.476,3.393,4.283,5.971,1.87c3.552-3.324,4.858-7.85,0.716-11.247c-2.166-1.776-5.544-2.852-8.232-1.736
			c-3.642,1.512-1.252,6.139,0.15,8.345C231.286,314.416,233.128,313.679,232.585,312.825L232.585,312.825z"/>
	</g>
</g>
<g>
	<g>
		<path fill="#41719C" d="M287.779,379.155c0.236-1.734,0.637-3.866,2.191-4.927c1.03-0.702,2.55-0.019,3.481,0.521
			c2.249,1.302,4.72,4.171,4.46,6.944c-0.132,1.412-1.349,2.021-2.619,2.222c-2.844,0.447-5.874-0.14-7.091-3.014
			c-0.458-1.083-1.017-8.134,0.936-6.962c2.694,1.617,2.211,5.699,0.828,7.925c0.628-0.055,1.257-0.109,1.885-0.164
			c-0.292-0.726-0.69-1.478-0.841-2.251c-0.128-0.654,0.163-1.662,0.172-2.334c-0.621,0.167-1.242,0.333-1.863,0.499
			c1.361,2.227,2.597,3.769,2.631,6.468c0.269-0.238,0.539-0.476,0.808-0.713c0.718-0.258,0.494,0.367,0.62-0.363
			c0.039-0.187,0.099-0.366,0.181-0.538c0.296-0.435,0.016-0.465-0.839-0.092c0.239-0.349,0.479-0.698,0.718-1.048
			c-0.93,0.226-0.667,0.366-0.669-0.711c-0.002-1.234-0.077-2.453-0.237-3.679c-0.51,0.296-1.02,0.592-1.529,0.888
			c1.34,0.407,3.085,0.903,3.546,2.399c0.374,1.214-0.603,2.692-1.181,3.68c-0.534,0.913,1.431,0.887,1.839,0.189
			c0.808-1.382,1.697-3.012,1.192-4.651c-0.527-1.711-2.772-2.421-4.27-2.875c-0.57-0.173-1.627,0.141-1.529,0.888
			c0.145,1.107,0.215,2.208,0.216,3.325c0.001,0.497-0.062,1.088,0.186,1.54c0.506,0.926,2.003,0.456,2.774,0.269
			c0.428-0.104,1.041-0.557,0.718-1.048c-1.918-2.915-5.072,4.409-1.398,3.089c0.287-0.103,0.813-0.323,0.808-0.713
			c-0.015-1.182-0.066-2.326-0.534-3.428c-0.56-1.318-1.534-2.494-2.277-3.71c-0.357-0.584-1.854-0.192-1.863,0.499
			c-0.01,0.805-0.125,1.583-0.17,2.381c-0.047,0.844,0.562,1.814,0.861,2.558c0.315,0.783,1.545,0.384,1.885-0.164
			c1.65-2.653,1.774-6.111-0.39-8.531c-1.476-1.649-3.897-1.553-5.046,0.375c-0.761,1.276-0.734,3.243-0.647,4.666
			c0.102,1.669,0.5,3.235,1.532,4.577c1.775,2.311,5.21,2.46,7.853,2.128c3.877-0.485,5.794-3.448,4.055-7.021
			c-1.45-2.978-4.698-5.879-8.201-5.633c-3.444,0.241-4.735,3.784-5.133,6.705C285.697,380.27,287.666,379.988,287.779,379.155
			L287.779,379.155z"/>
	</g>
</g>
<g>
	<g>
		<path fill="#41719C" d="M375.439,395.128c-1.041-1.649-2.653-3.947-2.353-6.03c0.145-1.005,1.604-0.545,2.274-0.338
			c1.832,0.566,6.46,3.025,5.564,5.589c-0.64,1.83-4.277,2.169-5.605,1.391c-2.202-1.292-4.051-6.11-1.472-7.86
			c1.953-1.324,4.271,1.153,4.982,2.794c1.372,3.165-1.44,4.602-4.198,4.823c0.297,0.163,0.594,0.326,0.891,0.489
			c-0.42-1.282-1.401-3.425-0.988-4.825c-0.063,0.215-0.908-0.039-0.271,0.376c0.369,0.239,0.697,0.551,0.999,0.868
			c0.502,0.527,1.125,1.194,1.363,1.897c-0.326-0.96,1.907-0.142,0.675-1.018c-0.713-0.506-1.361-1.111-2.005-1.7
			c-0.579-0.53-2.269,0.297-1.62,1.016c0.55,0.609,0.994,1.312,1.584,1.883c0.159,0.154,0.85,1.114,1.035,0.461
			c-0.044,0.148-0.093,0.294-0.148,0.438c-0.269,0.472-0.023,0.446,0.736-0.076c-0.372-0.912-2.293-0.368-1.932,0.518
			c0.98,2.4,2.848,0.748,3.308-1.002c0.047-0.177-0.094-0.429-0.243-0.517c-1.109-0.657-1.737-1.646-2.579-2.578
			c-0.54,0.338-1.08,0.677-1.62,1.016c1.021,0.936,3.101,3.341,4.593,1.876c0.823-0.807-0.906-2.567-1.386-3.088
			c-0.901-0.977-2.181-2.117-3.59-1.472c-2.063,0.945-0.277,5.119,0.157,6.444c0.121,0.371,0.528,0.519,0.891,0.489
			c2.529-0.202,5.642-0.99,6.492-3.727c0.646-2.08-0.514-4.202-1.953-5.633c-1.541-1.531-3.822-2.025-5.803-1.122
			c-2.59,1.182-2.875,4.146-2.134,6.58c0.826,2.713,3.187,4.863,6.119,4.582c1.807-0.173,4.178-0.923,5.267-2.488
			c1.9-2.732-1.771-5.649-3.85-6.82c-1.892-1.065-4.54-2.052-6.543-0.733c-2.737,1.802,0.509,6.645,1.599,8.37
			C374.173,396.788,376.002,396.021,375.439,395.128L375.439,395.128z"/>
	</g>
</g>
<g>
	<g>
		<path fill="#41719C" d="M453.074,352.448c-0.42-2.223-0.525-7.318,3.063-5.172c2.791,1.671,3.014,5.138,0.728,7.335
			c-1.589,1.526-4.772,3.683-6.429,1.265c-0.668-0.975-0.906-2.271-1.129-3.406c-0.196-0.999-0.562-2.255-0.149-3.237
			c0.507-1.211,2.341-0.773,3.141-0.199c1.865,1.339-0.445,3.663-1.517,4.569c0.543,0.133,1.086,0.266,1.628,0.398
			c-0.096-1.42,0.36-4.272,2.462-3.747c2.484,0.621-0.564,3.425-1.369,4.029c0.543,0.133,1.086,0.266,1.628,0.398
			c0-1.587,0-3.174,0-4.762c-0.573,0.213-1.147,0.426-1.722,0.638c0.527,0.364,1.071,0.713,1.476,1.217
			c0.026,0.033-0.643,0.325-0.838,0.417c-0.806,0.374-1.528,0.861-2.07,1.571c-0.753,0.985,1.069,1.34,1.627,0.609
			c0.792-1.037,2.229-1.101,3.055-2.083c0.965-1.148-1.04-2.373-1.767-2.874c-0.489-0.338-1.722-0.11-1.722,0.638
			c0,1.587,0,3.174,0,4.762c0,0.843,1.146,0.761,1.628,0.398c1.296-0.974,2.93-2.343,2.971-4.117c0.026-1.15-0.918-1.965-1.96-2.226
			c-3.351-0.838-5.565,2.209-5.359,5.264c0.054,0.797,1.123,0.825,1.628,0.398c1.494-1.264,3.724-3.496,2.555-5.655
			c-0.813-1.501-2.755-2.029-4.349-1.833c-1.825,0.224-3.296,1.517-3.259,3.427c0.046,2.4,0.676,5.842,2.703,7.396
			c2.323,1.78,5.778-0.302,7.686-1.7c1.663-1.22,3.028-3.057,3.054-5.185c0.037-3.088-3.129-6.153-6.265-5.668
			c-3.686,0.57-3.595,4.817-3.059,7.652C451.318,353.898,453.254,353.398,453.074,352.448L453.074,352.448z"/>
	</g>
</g>
<g>
	<g>
		<path fill="#41719C" d="M484.379,266.234c0.966-3.204,3.762-7.281,7.06-3.836c0.867,0.905,1.348,2.143,1.118,3.388
			c-0.346,1.876-2.756,2.37-4.304,2.558c0.266,0.09,0.53,0.179,0.796,0.269c-1.625-2.514-3.773-6.986,0.647-7.778
			c-0.353-0.075-0.706-0.149-1.059-0.224c1.482,2.601,1.356,4.571-1.577,5.83c0.463,0.098,0.926,0.195,1.389,0.293
			c-0.167-0.794-0.551-1.713-0.488-2.533c0.061-0.81,2.322-1.854,2.88-2.225c-0.508-0.001-1.015-0.003-1.522-0.005
			c1.161,1.88,1.784,8.505-1.909,8.129c-2.014-0.205-4.401-3.029-2.768-4.862c0.868-0.973,2.582-1.512,3.855-1.309
			c1.246,0.198-2.799,3.177-3.012,3.317c0.534,0.056,1.068,0.111,1.603,0.167c-0.378-1.129-0.816-2.261-0.982-3.445
			c-0.203-1.449,1.628-1.569,2.648-1.728c-0.266-0.089-0.53-0.179-0.796-0.269c0.51,0.832,0.151,1.858,0.68,2.721
			c0.443,0.724,2.29,0.006,1.771-0.842c-0.51-0.832-0.151-1.858-0.68-2.721c-0.143-0.231-0.553-0.307-0.796-0.269
			c-1.654,0.258-3.567,0.533-4.542,2.055c-0.869,1.358,0.333,3.728,0.765,5.016c0.221,0.66,1.176,0.447,1.603,0.167
			c1.012-0.666,6.356-4.45,2.771-5.465c-2.261-0.641-5.504,0.604-6.843,2.491c-2.223,3.133,2.07,6.402,4.966,6.386
			c4.968-0.027,5.349-7.283,3.437-10.381c-0.305-0.493-1.157-0.248-1.522-0.005c-1.163,0.773-2.618,1.491-3.391,2.705
			c-0.576,0.907,0.149,2.515,0.341,3.421c0.123,0.584,1.016,0.454,1.389,0.293c1.452-0.622,2.818-1.429,3.5-2.914
			c0.741-1.614-0.206-3.474-0.997-4.862c-0.195-0.343-0.751-0.278-1.059-0.224c-1.981,0.355-3.67,1.267-4.219,3.307
			c-0.599,2.224,1.004,4.837,2.146,6.603c0.152,0.235,0.543,0.3,0.796,0.269c2.378-0.289,5.244-1.051,6.257-3.492
			c0.737-1.775-0.156-3.768-1.456-5.012c-1.463-1.4-3.547-1.917-5.482-1.305c-2.835,0.897-4.178,3.855-4.968,6.475
			C482.156,267.278,484.133,267.051,484.379,266.234L484.379,266.234z"/>
	</g>
</g>
<g>
	<g>
		<path fill="#41719C" d="M231.468,219.013c1.939,2.021,3.944,5.558,1.148,7.793c-1.12,0.896-2.761-0.077-3.621-0.881
			c-1.27-1.188-1.631-3.125-1.771-4.77c-0.139,0.119-0.278,0.237-0.417,0.356c3.07-1.489,4.858-1.294,6.649,1.522
			c0.298-0.174,0.597-0.349,0.895-0.523c-1.408,0.35-2.447,0.416-3.833,0.091c-1.309-0.307,1.457-2.818,1.702-2.978
			c1.686-1.104,3.423,1.047,3.687,2.448c0.167,0.884-0.152,1.783-0.492,2.582c-0.582,1.368-1.027,0.987-1.776-0.135
			c-1.299-1.944-0.628-4.417,0.973-5.916c-0.606,0.09-1.213,0.18-1.82,0.27c-0.123,0.315-0.452,1.921-0.763,2.119
			c-0.628,0.401-1.27,0.752-1.878,1.193c0.606-0.09,1.213-0.18,1.82-0.27c0.345-0.721,0.791-2.336,1.413-1.776
			c0.604,0.543,0.976,1.434,1.341,2.141c0.484,0.937,1.073,2.72,2.3,2.892c0.431,0.061,2.078-0.641,1.597-0.714
			c-1.259-0.19-2.453,0.022-3.678,0.318c-2.587,0.624-2.753-2.395-2.957-4.301c-0.034-0.317-1.982,0.048-1.932,0.518
			c0.172,1.606,0.268,4.135,2.165,4.655c1.564,0.429,3.212-0.717,4.806-0.476c0.532-0.238,1.064-0.476,1.597-0.714
			c-1.718-0.241-2.341-4.254-3.8-5.268c-2.035-1.414-4.112,1.748-4.751,3.083c-0.187,0.39,1.623-0.126,1.82-0.27
			c0.556-0.403,1.409-0.731,1.903-1.227c0.492-0.493,0.659-1.647,0.899-2.263c0.154-0.396-1.611,0.074-1.82,0.27
			c-2.094,1.959-2.798,6.048,0.244,7.596c2.35,1.195,4.248-1.686,4.668-3.498c0.583-2.521-1.449-4.241-3.793-4.216
			c-2.762,0.029-4.892,1.864-5.961,4.289c-0.054,0.122,0.056,0.154,0.152,0.178c2.346,0.583,3.982,0.485,6.312-0.093
			c0.083-0.021,1.029-0.313,0.895-0.523c-2.493-3.922-6.001-2.983-9.678-1.199c-0.118,0.057-0.433,0.174-0.417,0.356
			c0.368,4.315,3.167,7.227,7.538,5.761c4.652-1.56,3.07-6.343,0.463-9.061C232.971,218.038,231.216,218.75,231.468,219.013
			L231.468,219.013z"/>
	</g>
</g>
<g>
	<g>
		<path fill="#41719C" d="M288.375,153.673c-1.163-1.986-1.601-5.19,1.406-5.618c2.582-0.367,4.271,1.866,4.139,4.248
			c-0.103,1.863-1.089,3.704-2.047,5.257c-1.163,1.885-2.437,1.736-3.583,0.045c-2.214-3.266-1.164-8.342,1.848-10.682
			c-0.527-0.027-1.053-0.054-1.58-0.081c0.389,1.171,0.908,2.403,0.942,3.654c0.034,1.246-0.959,2.507-1.564,3.519
			c0.626-0.018,1.252-0.036,1.878-0.054c0.467-2.286,1.266-3.462,2.658-5.286c-0.626,0.018-1.252,0.036-1.878,0.054
			c-0.047,1.421-0.602,4.018-2.563,3.032c-2.163-1.087,0.974-2.954,1.89-3.36c-0.455-0.066-0.909-0.132-1.363-0.198
			c0.211,0.574,1.66,5.026,0.417,4.974c-1.517-0.063-3.027-1.583-3.862-2.711c-0.938-1.268-1.241-3.061,0.376-3.904
			c0.597-0.312,1.284-0.451,1.941-0.562c1.386-0.235,1.459-0.111,2.044,1.184c1.286,2.844-0.296,5.092-3.237,5.609
			c0.283,0.111,0.566,0.223,0.85,0.335c-0.966-2.331-1.648-5.846,1.241-7.098c1.841-0.798,4.124,0.368,4.478,2.312
			c0.47,2.572-2.586,6.841-5.32,5.251c-0.99-0.577-1.566-1.777-1.495-2.897c0.127-1.999,2.5-2.602,4.095-2.838
			c-0.283-0.111-0.566-0.223-0.85-0.335c1.587,3.447,0.991,6.704-2.833,8.128c0.456,0.117,0.912,0.234,1.368,0.352
			c0.184-0.862,1.188-4.571,2.742-3.759c1.695,0.887-1.214,3.816-1.777,4.342c-0.847,0.791,1.057,0.886,1.572,0.404
			c1.373-1.283,4.323-4.924,1.127-5.99c-3.089-1.03-5.114,2.905-5.605,5.212c-0.147,0.691,1.073,0.461,1.368,0.352
			c4.354-1.622,5.928-5.308,3.97-9.559c-0.146-0.316-0.531-0.382-0.85-0.335c-3.389,0.5-8.746,3.394-5.149,7.282
			c3.265,3.528,8.068-0.427,9.259-3.81c1.3-3.692-1.891-5.925-5.332-5.454c-4.724,0.647-5.531,5.124-3.942,8.956
			c0.13,0.314,0.545,0.389,0.85,0.335c2.063-0.362,3.932-1.027,5.219-2.756c1.457-1.957,0.304-4.614-0.809-6.396
			c-0.143-0.229-0.556-0.211-0.776-0.199c-2.265,0.122-6.301,0.509-7.139,3.186c-0.608,1.946,0.924,3.851,2.328,5.009
			c1.409,1.164,3.33,2.023,5.126,1.257c2.471-1.053,1.186-4.627,0.534-6.396c-0.187-0.507-0.996-0.36-1.363-0.198
			c-1.883,0.836-5.982,3.982-2.179,5.464c3.129,1.219,5.491-1.531,5.587-4.433c0.031-0.943-1.563-0.359-1.878,0.054
			c-1.484,1.944-2.288,3.174-2.783,5.599c-0.178,0.874,1.612,0.391,1.878-0.054c0.657-1.099,1.383-2.189,1.655-3.456
			c0.301-1.4-0.492-3.059-0.917-4.337c-0.19-0.574-1.237-0.347-1.58-0.081c-3.776,2.934-5.223,9.097-1.803,12.927
			c3.861,4.325,7.983-3.315,8.646-6.313c0.856-3.873-2.321-6.476-5.993-5.954c-4.151,0.59-5.117,4.232-3.169,7.559
			C286.951,155.078,288.822,154.436,288.375,153.673L288.375,153.673z"/>
	</g>
</g>
<g>
	<g>
		<path fill="#41719C" d="M376.132,134.339c0.812-0.905,1.375-2.804,2.802-2.889c-0.193-0.084-0.387-0.168-0.58-0.252
			c0.612,1.518,1.033,3.07,0.511,4.677c-0.64,1.972-3.074,2.482-4.844,2.733c0.274,0.078,0.548,0.157,0.823,0.235
			c-0.159-2.33,0.993-4.4,3.566-4.018c2.448,0.363,2.294,2.121,1.129,3.809c-0.148,0.21-0.316,0.403-0.504,0.579
			c0.329,0.071,0.354,0.048,0.077-0.067c-0.238-0.157-0.412-0.416-0.573-0.644c-0.526-0.745-0.795-1.721-1.061-2.581
			c-0.438-1.419-0.65-2.913-1.143-4.313c-0.056-0.159-0.131-0.256-0.153-0.42c-0.03-0.223-0.656-0.06,0.009,0.043
			c0.762,0.119,1.496,0.482,2.165,0.852c0.869,0.479,2.9,2.07,1.443,3.036c-1.772,1.174-6.489,1.545-7.263-1.04
			c-0.751-2.51,2.674-4.418,4.6-4.687c-0.274-0.078-0.548-0.157-0.823-0.235c0.923,1.701,1.785,3.738,1.095,5.671
			c-0.354,0.992-3.073,1.317-3.519,0.246c-0.205-0.491,0.386-1.174,0.652-1.515c0.891-1.142,2.374-2.168,3.811-2.42
			c2.007-0.352,2.731,1.915,3.101,3.417c0.338,1.372,0.568,3.413-1.056,3.083c-1.672-0.339-3.249-1.506-4.445-2.669
			c-0.764-0.742-2.184-2.351-1.322-3.466c0.466-0.604,1.865-0.458,2.502-0.453c0.887,0.006,1.77,0.115,2.648,0.231
			c1.237,0.165,0.971,1.826,0.789,2.772c-0.318,1.651-1.838,3.402-3.594,3.483c-2.09,0.097-3.096-2.531-2.957-4.245
			c0.172-2.123,2.357-3.988,4.342-4.336c2.038-0.357,4.213,1.704,3.903,3.733c-0.64,4.191-8.856,7.293-10.355,2.126
			c-0.521-1.796,0.46-3.846,1.818-4.993c2.477-2.091,4.667,2.378,5.31,4.096c0.235,0.63,2.146,0.053,1.932-0.518
			c-1.028-2.749-2.793-5.515-6.094-5.044c-2.354,0.336-4.166,2.277-4.832,4.475c-0.748,2.466,0.703,4.974,3.167,5.662
			c2.601,0.727,5.837-0.676,7.91-2.171c2.091-1.509,4.227-4.025,2.383-6.543c-2.031-2.775-5.961-2.028-8.443-0.41
			c-2.73,1.781-3.941,5.045-1.935,7.851c1.533,2.144,5.005,1.399,6.821,0.128c2.226-1.557,3.146-4.054,2.383-6.669
			c-0.045-0.154-0.228-0.213-0.366-0.236c-1.897-0.304-10.985-1.438-9.35,3.088c0.995,2.755,4.791,5.104,7.627,5.216
			c1.39,0.055,2.863-0.627,3.268-2.026c0.535-1.855-0.38-5.278-2.151-6.181c-2.333-1.191-5.148,0.146-7.062,1.552
			c-1.286,0.945-3.812,3.558-1.106,4.305c1.76,0.486,4.167,0.627,5.524-0.883c1.756-1.955,0.613-4.887-0.465-6.875
			c-0.154-0.285-0.541-0.274-0.823-0.235c-2.737,0.382-5.589,1.771-6.682,4.465c-1.183,2.918,2.146,3.982,4.355,4.065
			c1.861,0.07,6.628-0.367,7.135-2.821c0.366-1.775-2.495-3.115-3.756-3.578c-1.124-0.412-3.872-0.808-4.219,0.889
			c-0.104,0.511,0.338,1.321,0.462,1.816c0.319,1.276,0.614,2.555,1.021,3.807c0.563,1.731,1.649,3.959,3.853,3.003
			c1.688-0.732,3.803-3.413,2.317-5.135c-1.264-1.465-3.935-1.351-5.585-0.837c-2.458,0.766-3.583,2.779-3.413,5.282
			c0.021,0.302,0.653,0.259,0.823,0.235c2.134-0.303,4.753-0.858,6.218-2.611c1.572-1.882,1.191-4.177,0.333-6.304
			c-0.086-0.214-0.377-0.265-0.58-0.252c-1.032,0.062-2.174,0.2-3.01,0.883c-1.021,0.834-1.483,2.064-2.351,3.031
			C373.817,134.929,375.746,134.769,376.132,134.339L376.132,134.339z"/>
	</g>
</g>
<g>
	<g>
		<path fill="#41719C" d="M455.891,179.634c1.563-0.749,3.742-1.592,4.501,0.549c0.358,1.01,0.214,2.367-0.281,3.311
			c-0.393,0.749,1.404,0.08,0.754-0.019c-0.577-0.087-1.148-0.19-1.72-0.313c-1.172-0.252-2.28-0.674-3.315-1.275
			c-2.77-1.609-2.837-4.768-2.074-7.534c-0.578,0.196-1.156,0.392-1.734,0.588c1.008,0.5,2.197,0.933,3.05,1.685
			c0.754,0.665-1.812,2.064-2.199,2.325c0.521,0.009,1.043,0.018,1.564,0.027c-0.366-3.037,1.441-4.632,4.338-3.612
			c2.344,0.825,3.668,3.056,1.597,4.986c-2.593,2.417-7.243,2.853-8.99-0.766c-0.638-1.32-0.131-2.653,1.292-3.067
			c1.439-0.419,2.378-0.207,3.003,1.205c0.594,1.343-0.498,3.078-1.064,4.214c-0.414,0.832,1.519,0.602,1.799,0.039
			c0.69-1.387,1.497-2.783,1.305-4.382c-0.227-1.891-1.663-2.37-3.26-2.325c-1.988,0.057-4.674,0.744-5.242,2.947
			c-0.501,1.945,1.356,3.717,2.887,4.517c2.357,1.231,5.163,0.664,7.411-0.491c1.77-0.909,4.014-2.348,3.918-4.605
			c-0.071-1.677-1.956-2.797-3.339-3.285c-3.916-1.379-8.129,0.642-7.585,5.142c0.069,0.573,1.323,0.189,1.564,0.027
			c0.771-0.519,3.247-1.757,3.108-2.999c-0.145-1.3-2.692-2.055-3.619-2.516c-0.479-0.238-1.574,0.009-1.734,0.588
			c-0.995,3.609-0.303,6.808,3.17,8.609c1.657,0.86,5.249,2.317,6.76,0.564c0.989-1.148,1.039-3.567,0.249-4.802
			c-1.486-2.324-4.951-1.047-6.873-0.127C453.917,179.422,455.032,180.045,455.891,179.634L455.891,179.634z"/>
	</g>
</g>
<g>
	<g>
		<path fill="#41719C" d="M485.648,268.618c-0.227-0.227-0.453-0.454-0.68-0.68c-0.344-0.344-0.889-0.315-1.306-0.12
			c-0.28,0.132-0.813,0.606-0.468,0.952c0.227,0.227,0.453,0.454,0.68,0.68c0.344,0.344,0.889,0.315,1.306,0.12
			C485.461,269.438,485.994,268.963,485.648,268.618L485.648,268.618z"/>
	</g>
</g>
<g>
	<g>
		<path fill="#41719C" d="M451.034,357.21c-0.899-2.355-1.187-5.125-0.306-7.537c0.122-0.334,0.282-0.688,0.501-0.971
			c0.296-0.383-0.583-0.287-0.282,0.042c0.762,0.832,0.785,2.501,0.876,3.541c0.066,0.762,1.896,0.336,1.939-0.352
			c0.022-0.363,0.153-0.047-0.397,0.05c-0.287-0.126-0.574-0.252-0.861-0.378c0.073,0.21,0.128,0.425,0.164,0.645
			c0.126,0.609,0.255-0.109,0.546-0.087c-0.253-0.02-0.5-0.082-0.754-0.096c-0.856-0.045-2.014,1.21-0.703,1.279
			c0.753,0.04,1.332,0.177,2.07-0.1c0.962-0.361,0.843-1.369,0.608-2.159c-0.099-0.332-0.564-0.431-0.861-0.378
			c-0.776,0.136-1.7,0.479-1.759,1.409c0.646-0.117,1.293-0.234,1.939-0.352c-0.106-1.221-0.179-3.354-1.355-4.139
			c-0.909-0.607-2.096-0.145-2.759,0.605c-2.104,2.383-1.563,6.812-0.538,9.493C449.406,358.523,451.323,357.967,451.034,357.21
			L451.034,357.21z"/>
	</g>
</g>
<g>
	<g>
		<path fill="#41719C" d="M372.138,391.339c0.907,0,1.814,0,2.721,0c0.46,0,1.345-0.208,1.345-0.795c0-0.681,0-1.36,0-2.041
			c-0.621,0.211-1.243,0.422-1.864,0.633c0.674,0.892,1.296,2,2.573,1.657c1.01-0.27,1.172-1.196,1.817-1.882
			c0.773-0.821-1.118-0.751-1.544-0.299c-0.392,0.417-0.699,0.85-0.982,1.345c-0.039,0.068-0.08,0.133-0.126,0.196
			c0.737-1.08,1.682,0.114,1.021-0.561c-0.358-0.365-0.657-0.799-0.964-1.205c-0.39-0.516-1.864,0.009-1.864,0.633
			c0,0.681,0,1.36,0,2.041c0.448-0.265,0.896-0.53,1.345-0.795c-0.907,0-1.814,0-2.721,0c-0.434,0-1.01,0.146-1.276,0.522
			C371.355,391.162,371.842,391.339,372.138,391.339L372.138,391.339z"/>
	</g>
</g>
<g>
	<g>
		<path fill="#41719C" d="M291.182,155.027c-0.926,0.436-1.922,0.342-2.855,0.679c-0.642,0.232-0.809,0.912,0.008,0.952
			c0.534,0.026,0.569,0.106,0.973,0.509c0.407,0.406,1.535,0.115,1.796-0.356c0.43-0.776,0.957-0.698,1.661-0.978
			c0.234-0.093,0.971-0.674,0.385-0.87c-0.177-0.06-0.345-0.086-0.53-0.086c-0.437,0-1.012,0.144-1.275,0.529
			c-0.257,0.377,0.216,0.573,0.525,0.574c0.21,0,0.164,0.063-0.256-0.078c0.128-0.29,0.257-0.58,0.385-0.87
			c0.46-0.183,0.033-0.039-0.095-0.008c-0.307,0.075-0.608,0.185-0.898,0.308c-0.691,0.294-1.333,0.771-1.702,1.435
			c0.599-0.119,1.198-0.238,1.796-0.356c-0.313-0.312-0.604-0.626-1.032-0.765c-0.321-0.104-0.653-0.073-0.984-0.089
			c0.002,0.317,0.005,0.635,0.008,0.952c-0.755,0.273-0.488,0.136-0.176,0.103c0.295-0.031,0.588-0.077,0.879-0.13
			c0.74-0.135,1.469-0.331,2.152-0.652c0.226-0.106,0.825-0.454,0.514-0.78C292.169,154.743,291.511,154.873,291.182,155.027
			L291.182,155.027z"/>
	</g>
</g>
<g>
	<g>
		<path fill="#41719C" d="M458.945,176.734c-0.313,0.285,1.204-0.247,1.358,0.156c-0.022-0.057-0.028-0.12-0.036-0.18
			c0.026,0.201,0.002-0.059,0.002-0.102c0.001-0.087,0.006-0.174,0.013-0.261c0.011-0.167,0.034-0.333,0.063-0.498
			c0.01-0.056,0.077-0.285,0.002-0.039c0.007-0.021,0.015-0.042,0.023-0.062c-0.098,0.185-0.247,0.323-0.446,0.415
			c-0.254,0.043-0.509,0.086-0.763,0.13c0.004,0.001,0.007,0.001,0.011,0.002c-0.138-0.051-0.275-0.103-0.412-0.154
			c-0.284-0.25-0.194-0.343-0.161-0.076c-0.008-0.061,0.01,0.299,0.012,0.382c0.003,0.271,0,0.543,0,0.815
			C458.723,177.087,458.834,176.911,458.945,176.734c-0.318,0.291-0.715,0.394-1.116,0.529c-0.573,0.193-1.151,0.418-1.604,0.832
			c0.542,0.132,1.085,0.264,1.627,0.396c0.025-0.851,0.36-1.729,0.626-2.531c0.358-1.08-1.572-1.093-1.854-0.246
			c-0.305,0.918-0.703,1.937-0.733,2.911c-0.024,0.809,1.181,0.803,1.627,0.396c0.831-0.758,3.055-0.655,3.055-2.129
			c0-0.888,0.149-2.386-1.266-2.007c-0.866,0.232-0.981,1.097-0.997,1.86c-0.007,0.314,0.004,0.658,0.19,0.926
			c0.378,0.542,1.315,0.376,1.738-0.01C461.205,176.778,459.685,176.061,458.945,176.734L458.945,176.734z"/>
	</g>
</g>
<g>
	<g>
		<path fill="#41719C" d="M454.735,353.911c-1.026,1.063-1.538,2.639-3.008,3.163c0.449,0.091,0.897,0.182,1.347,0.272
			c0.023-0.646,0.284-1.318,0.463-1.933c0.107-0.369,0.57-1.241,0.339-1.608c-0.348-0.553-1.688,0.031-1.862,0.499
			c-0.07,0.186-0.128,0.377-0.19,0.565c-0.221,0.662,1.716,0.402,1.932-0.244c0.063-0.188,0.12-0.379,0.189-0.564
			c-0.621,0.166-1.241,0.332-1.862,0.499c-0.125-0.198-0.044-0.332-0.1-0.15c-0.033,0.108-0.066,0.216-0.1,0.323
			c-0.106,0.347-0.21,0.693-0.312,1.042c-0.168,0.577-0.406,1.209-0.429,1.815c-0.023,0.644,1.007,0.394,1.347,0.272
			c0.91-0.325,1.667-0.83,2.285-1.571c0.55-0.658,0.908-1.446,1.51-2.068c0.272-0.282,0.242-0.593-0.183-0.679
			C455.676,353.459,455.047,353.589,454.735,353.911L454.735,353.911z"/>
	</g>
</g>
<g>
	<g>
		<path fill="#41719C" d="M289.116,380.43c1.128-1.617,2.22-2.938,4.144-3.689c-0.434,0.012-0.867,0.023-1.301,0.035
			c0.041,2.386,0.106,3.39-1.348,5.353c0.64-0.143,1.279-0.285,1.919-0.428c-2.069-3.1-1.922-7.198,0.59-10.016
			c-0.614,0.109-1.227,0.22-1.841,0.329c2.028,2.945,2.559,6.009,1.373,9.434c0.64-0.143,1.279-0.285,1.919-0.428
			c0.065-1.993,0.691-3.521,1.348-5.353c-0.64,0.143-1.279,0.285-1.919,0.428c0,1.36,0,2.722,0,4.082
			c0.035,0.069,0.093,0.108,0.173,0.118c2.814,0.841,1.584,3.706,1.201,5.914c0.64-0.143,1.279-0.285,1.919-0.428
			c-0.466-0.84-1.005-1.465-1.698-2.124c-1.058-1.005-0.994-2.661-1.023-3.998c-0.035-0.069-0.093-0.108-0.173-0.118
			c-0.91-0.138-2.092-0.038-2.944-0.378c-1.14-0.455-2.24-2.147-3.062-2.977c-0.323-0.327-1.827,0.125-1.875,0.589
			c-0.122,1.158-0.477,2.185-0.667,3.312c-0.079,0.466,1.827,0.132,1.906-0.338c0.201-1.186,0.566-2.289,0.693-3.491
			c-0.625,0.196-1.25,0.393-1.875,0.589c1.535,1.551,2.455,3.087,4.676,3.252c1.83,0.136,1.352,2.415,2.033,3.63
			c0.538,0.959,1.524,1.572,2.079,2.57c0.221,0.397,1.846-0.008,1.919-0.428c0.266-1.529,1.12-3.85,0.297-5.331
			c-0.233-0.421-0.813-0.698-1.249-0.828c-0.838-0.251-0.396-3.464-0.396-4.135c0-0.385-1.785,0.054-1.919,0.428
			c-0.68,1.899-1.306,3.493-1.373,5.532c-0.012,0.363,1.785-0.04,1.919-0.428c1.188-3.432,0.717-6.615-1.348-9.613
			c-0.294-0.427-1.57,0.025-1.841,0.329c-2.599,2.916-2.96,7.113-0.771,10.393c0.318,0.477,1.66-0.078,1.919-0.428
			c1.543-2.083,1.417-3.018,1.374-5.532c-0.006-0.343-1.18-0.012-1.301,0.035c-2.368,0.925-3.933,2.399-5.38,4.475
			C287.068,380.971,288.79,380.897,289.116,380.43L289.116,380.43z"/>
	</g>
</g>
<g>
	<g>
		<path fill="#41719C" d="M236.847,307.892c-0.335,1.197-0.336,2.435-0.34,3.67c-0.003,0.843,0.224,2.222-0.283,2.956
			c-0.096,0.14-0.081,0.387,0.033,0.512c0.323,0.357,0.547,0.835,0.903,1.145c0.372,0.323,1.032,0.084,1.382-0.128
			c0.451-0.273,0.842-0.712,1.275-1.021c-0.479-0.225-0.957-0.45-1.436-0.676c-1.053,1.049-2.03,1.847-3.448,2.354
			c0.378,0.124,0.757,0.247,1.135,0.371c-0.349-1.239-0.766-2.522-0.838-3.817c-0.065-1.165,0.665-0.856,1.572-0.691
			c0.915,0.167,1.974-1.114,0.684-1.35c-1.246-0.227-3.115-0.404-3.889,0.892c-0.912,1.526,0.114,3.973,0.54,5.484
			c0.123,0.437,0.779,0.498,1.135,0.371c1.917-0.685,3.282-1.66,4.715-3.088c0.834-0.831-0.896-1.061-1.436-0.676
			c-0.424,0.302-0.833,0.752-1.275,1.02c0.461-0.042,0.921-0.085,1.382-0.128c-0.67-0.582-0.242-1.356-0.207-2.313
			c0.063-1.689-0.113-3.401,0.349-5.05C239.047,306.845,237.073,307.084,236.847,307.892L236.847,307.892z"/>
	</g>
</g>
<g>
	<g>
		<path fill="#41719C" d="M228.597,221.336c0.515-2.26,0.18-4.638,1.868-6.451c-0.59-0.005-1.181-0.01-1.771-0.015
			c0.592,1.319,0.769,2.762,1.361,4.082c0.376,0.839,2.288,0.276,1.932-0.518c-0.592-1.319-0.769-2.762-1.361-4.082
			c-0.311-0.693-1.345-0.473-1.771-0.015c-1.927,2.069-1.625,4.574-2.213,7.154C226.43,222.421,228.406,222.174,228.597,221.336
			L228.597,221.336z"/>
	</g>
</g>
<g>
	<g>
		<path fill="#41719C" d="M454.073,349.818c1.529,0.862,1.596,2.847,1.145,4.346c-0.241,0.804,1.722,0.549,1.945-0.193
			c0.558-1.857,0.25-4.148-1.576-5.178C454.944,348.431,453.197,349.324,454.073,349.818L454.073,349.818z"/>
	</g>
</g>
</svg>
